G75*
%MOIN*%
%OFA0B0*%
%FSLAX25Y25*%
%IPPOS*%
%LPD*%
%AMOC8*
5,1,8,0,0,1.08239X$1,22.5*
%
%ADD10C,0.13398*%
%ADD11C,0.06737*%
%ADD12R,0.06737X0.06737*%
%ADD13R,0.04737X0.05131*%
%ADD14R,0.05131X0.04737*%
%ADD15R,0.07493X0.02572*%
%ADD16R,0.09068X0.06607*%
%ADD17R,0.08280X0.10150*%
%ADD18R,0.08268X0.04528*%
%ADD19R,0.03950X0.04737*%
%ADD20R,0.05524X0.02965*%
%ADD21R,0.05600X0.09600*%
%ADD22R,0.14973X0.09461*%
%ADD23R,0.04343X0.01942*%
%ADD24R,0.01942X0.04343*%
%ADD25R,0.14580X0.14580*%
%ADD26R,0.03950X0.03950*%
%ADD27R,0.05800X0.03300*%
%ADD28R,0.04737X0.06312*%
%ADD29OC8,0.06737*%
%ADD30R,0.11800X0.03800*%
%ADD31C,0.03556*%
%ADD32R,0.03950X0.08674*%
%ADD33R,0.03800X0.02600*%
%ADD34OC8,0.03400*%
D10*
X0015765Y0048479D03*
X0015765Y0108479D03*
D11*
X0140765Y0108479D03*
X0150765Y0108479D03*
X0150765Y0098479D03*
X0140765Y0098479D03*
X0140765Y0088479D03*
X0150765Y0088479D03*
X0150765Y0078479D03*
X0140765Y0078479D03*
X0140765Y0068479D03*
X0150765Y0068479D03*
X0150765Y0058479D03*
X0140765Y0058479D03*
X0140765Y0048479D03*
D12*
X0150765Y0048479D03*
D13*
X0054111Y0058479D03*
X0047418Y0058479D03*
X0047418Y0064979D03*
X0047418Y0070479D03*
X0054111Y0070479D03*
X0054111Y0064979D03*
X0054111Y0077479D03*
X0054111Y0082979D03*
X0047418Y0082979D03*
X0047418Y0077479D03*
X0040111Y0083979D03*
X0033418Y0083979D03*
X0033418Y0089479D03*
X0040111Y0089479D03*
D14*
X0060765Y0101133D03*
X0067265Y0101133D03*
X0067265Y0107826D03*
X0060765Y0107826D03*
X0060765Y0114133D03*
X0060765Y0120826D03*
X0091765Y0107826D03*
X0097765Y0107826D03*
X0103765Y0107826D03*
X0109765Y0107826D03*
X0115765Y0107826D03*
X0115765Y0101133D03*
X0109765Y0101133D03*
X0103765Y0101133D03*
X0097765Y0101133D03*
X0091765Y0101133D03*
X0099265Y0079326D03*
X0099265Y0072633D03*
X0093765Y0048826D03*
X0093765Y0042133D03*
X0073765Y0042133D03*
X0073765Y0048826D03*
X0113765Y0048826D03*
X0113765Y0042133D03*
D15*
X0021288Y0073361D03*
X0021288Y0075920D03*
X0021288Y0078479D03*
X0021288Y0081038D03*
X0021288Y0083598D03*
D16*
X0019320Y0088322D03*
X0019320Y0068637D03*
D17*
X0010265Y0066865D03*
X0010265Y0090094D03*
D18*
X0010265Y0081531D03*
X0010265Y0075428D03*
D19*
X0122265Y0097861D03*
X0122265Y0108098D03*
D20*
X0041383Y0077220D03*
X0041383Y0073479D03*
X0041383Y0069739D03*
X0031146Y0069739D03*
X0031146Y0073479D03*
X0031146Y0077220D03*
D21*
X0031165Y0098279D03*
X0040265Y0098279D03*
X0049365Y0098279D03*
D22*
X0040265Y0122680D03*
D23*
X0068725Y0085369D03*
X0068725Y0083401D03*
X0068725Y0081432D03*
X0068725Y0079464D03*
X0068725Y0077495D03*
X0068725Y0075527D03*
X0068725Y0073558D03*
X0068725Y0071590D03*
X0088804Y0071590D03*
X0088804Y0073558D03*
X0088804Y0075527D03*
X0088804Y0077495D03*
X0088804Y0079464D03*
X0088804Y0081432D03*
X0088804Y0083401D03*
X0088804Y0085369D03*
D24*
X0085654Y0088519D03*
X0083686Y0088519D03*
X0081717Y0088519D03*
X0079749Y0088519D03*
X0077780Y0088519D03*
X0075812Y0088519D03*
X0073843Y0088519D03*
X0071875Y0088519D03*
X0071875Y0068440D03*
X0073843Y0068440D03*
X0075812Y0068440D03*
X0077780Y0068440D03*
X0079749Y0068440D03*
X0081717Y0068440D03*
X0083686Y0068440D03*
X0085654Y0068440D03*
D25*
X0078765Y0078479D03*
D26*
X0087765Y0047932D03*
X0087765Y0042027D03*
X0108265Y0042027D03*
X0108265Y0047932D03*
X0067265Y0047932D03*
X0067265Y0042027D03*
D27*
X0075465Y0101179D03*
X0075465Y0107779D03*
X0084065Y0107779D03*
X0084065Y0101179D03*
D28*
X0054505Y0051810D03*
X0047024Y0051810D03*
X0050765Y0043149D03*
D29*
X0025765Y0032979D03*
X0045765Y0032979D03*
D30*
X0170765Y0043479D03*
X0170765Y0048479D03*
X0170765Y0053479D03*
X0170765Y0058479D03*
X0170765Y0063479D03*
X0186765Y0063479D03*
X0186765Y0058479D03*
X0186765Y0053479D03*
X0186765Y0048479D03*
X0186765Y0043479D03*
X0186765Y0093479D03*
X0186765Y0098479D03*
X0186765Y0103479D03*
X0186765Y0108479D03*
X0186765Y0113479D03*
X0170765Y0113479D03*
X0170765Y0108479D03*
X0170765Y0103479D03*
X0170765Y0098479D03*
X0170765Y0093479D03*
D31*
X0107265Y0073979D03*
X0097765Y0065979D03*
X0092265Y0067979D03*
X0090265Y0061479D03*
X0083265Y0058979D03*
X0079265Y0055479D03*
D32*
X0094497Y0118479D03*
X0111032Y0118479D03*
D33*
X0067265Y0059779D03*
X0067265Y0056179D03*
D34*
X0071765Y0055979D03*
X0067265Y0051479D03*
X0071265Y0061479D03*
X0067265Y0065479D03*
X0082265Y0052479D03*
X0083265Y0047979D03*
X0081765Y0043479D03*
X0091265Y0055479D03*
X0096265Y0054979D03*
X0103265Y0050979D03*
X0098765Y0045479D03*
X0113765Y0053979D03*
X0123265Y0058979D03*
X0132765Y0061479D03*
X0113765Y0071479D03*
X0104765Y0067979D03*
X0104765Y0079479D03*
X0114265Y0092479D03*
X0127186Y0083401D03*
X0122765Y0078479D03*
X0085265Y0092979D03*
X0071765Y0093479D03*
X0066765Y0090479D03*
X0062265Y0095479D03*
X0058765Y0089479D03*
X0053265Y0090979D03*
X0045765Y0089479D03*
X0059765Y0080979D03*
X0078765Y0078479D03*
X0049265Y0106979D03*
X0052765Y0122479D03*
X0027765Y0085479D03*
X0041265Y0049979D03*
X0103765Y0112479D03*
X0160765Y0113479D03*
X0161265Y0061479D03*
X0162265Y0048479D03*
X0160765Y0043479D03*
X0186765Y0039479D03*
M02*
