G75*
%MOIN*%
%OFA0B0*%
%FSLAX25Y25*%
%IPPOS*%
%LPD*%
%AMOC8*
5,1,8,0,0,1.08239X$1,22.5*
%
%ADD10C,0.00500*%
%ADD11C,0.00800*%
%ADD12C,0.00600*%
%ADD13C,0.01761*%
%ADD14R,0.00984X0.00984*%
%ADD15C,0.01600*%
%ADD16C,0.00394*%
D10*
X0062515Y0034729D02*
X0062515Y0038232D01*
X0064266Y0038232D01*
X0064850Y0037649D01*
X0064850Y0036481D01*
X0064266Y0035897D01*
X0062515Y0035897D01*
X0066198Y0038232D02*
X0066198Y0034729D01*
X0067365Y0035897D01*
X0068533Y0034729D01*
X0068533Y0038232D01*
X0069881Y0034729D02*
X0069881Y0038232D01*
X0071632Y0038232D01*
X0072216Y0037649D01*
X0072216Y0036481D01*
X0071632Y0035897D01*
X0069881Y0035897D01*
X0071049Y0035897D02*
X0072216Y0034729D01*
X0083015Y0038232D02*
X0083015Y0034729D01*
X0084766Y0034729D01*
X0085350Y0035313D01*
X0085350Y0037649D01*
X0084766Y0038232D01*
X0083015Y0038232D01*
X0086698Y0034729D02*
X0086698Y0037065D01*
X0087865Y0038232D01*
X0089033Y0037065D01*
X0089033Y0034729D01*
X0089033Y0036481D02*
X0086698Y0036481D01*
X0090381Y0034729D02*
X0090381Y0038232D01*
X0092132Y0038232D01*
X0092716Y0037649D01*
X0092716Y0036481D01*
X0092132Y0035897D01*
X0090381Y0035897D01*
X0117005Y0126732D02*
X0117005Y0123229D01*
X0118756Y0123229D01*
X0119340Y0123813D01*
X0119340Y0126149D01*
X0118756Y0126732D01*
X0117005Y0126732D01*
X0120688Y0123229D02*
X0120688Y0125565D01*
X0121856Y0126732D01*
X0123023Y0125565D01*
X0123023Y0123229D01*
X0123023Y0124981D02*
X0120688Y0124981D01*
X0124371Y0123229D02*
X0124371Y0126732D01*
X0126123Y0126732D01*
X0126706Y0126149D01*
X0126706Y0124981D01*
X0126123Y0124397D01*
X0124371Y0124397D01*
X0128054Y0125565D02*
X0128054Y0123813D01*
X0128638Y0123229D01*
X0130390Y0123229D01*
X0130390Y0125565D01*
X0131737Y0126732D02*
X0132321Y0126732D01*
X0132321Y0123229D01*
X0131737Y0123229D02*
X0132905Y0123229D01*
X0135944Y0123229D02*
X0134777Y0123229D01*
X0134193Y0123813D01*
X0134193Y0124981D01*
X0134777Y0125565D01*
X0135944Y0125565D01*
X0136528Y0124981D01*
X0136528Y0124397D01*
X0134193Y0124397D01*
X0137876Y0124981D02*
X0140211Y0124981D01*
X0141559Y0126732D02*
X0141559Y0123229D01*
X0143894Y0123229D01*
X0145242Y0123229D02*
X0145242Y0126732D01*
X0146994Y0126732D01*
X0147578Y0126149D01*
X0147578Y0124981D01*
X0146994Y0124397D01*
X0145242Y0124397D01*
X0151261Y0126149D02*
X0150677Y0126732D01*
X0149509Y0126732D01*
X0148925Y0126149D01*
X0148925Y0123813D01*
X0149509Y0123229D01*
X0150677Y0123229D01*
X0151261Y0123813D01*
X0152609Y0125565D02*
X0153776Y0126732D01*
X0153776Y0123229D01*
X0152609Y0123229D02*
X0154944Y0123229D01*
X0156292Y0125565D02*
X0157459Y0126732D01*
X0157459Y0123229D01*
X0156292Y0123229D02*
X0158627Y0123229D01*
X0159975Y0126732D02*
X0159975Y0123813D01*
X0160559Y0123229D01*
X0161726Y0123229D01*
X0162310Y0123813D01*
X0162310Y0126732D01*
X0163658Y0126149D02*
X0164242Y0126732D01*
X0165409Y0126732D01*
X0165993Y0126149D01*
X0165993Y0125565D01*
X0165409Y0124981D01*
X0164826Y0124981D01*
X0165409Y0124981D02*
X0165993Y0124397D01*
X0165993Y0123813D01*
X0165409Y0123229D01*
X0164242Y0123229D01*
X0163658Y0123813D01*
X0169676Y0126732D02*
X0167341Y0126732D01*
X0167341Y0124981D01*
X0168509Y0125565D01*
X0169093Y0125565D01*
X0169676Y0124981D01*
X0169676Y0123813D01*
X0169093Y0123229D01*
X0167925Y0123229D01*
X0167341Y0123813D01*
X0134807Y0119565D02*
X0135974Y0117229D01*
X0137142Y0119565D01*
X0138490Y0119565D02*
X0139658Y0120732D01*
X0139658Y0117229D01*
X0140825Y0117229D02*
X0138490Y0117229D01*
X0142173Y0117229D02*
X0142173Y0117813D01*
X0142757Y0117813D01*
X0142757Y0117229D01*
X0142173Y0117229D01*
X0144015Y0119565D02*
X0145182Y0120732D01*
X0145182Y0117229D01*
X0144015Y0117229D02*
X0146350Y0117229D01*
X0147698Y0117229D02*
X0147698Y0117813D01*
X0148282Y0117813D01*
X0148282Y0117229D01*
X0147698Y0117229D01*
X0149539Y0117813D02*
X0149539Y0120149D01*
X0150123Y0120732D01*
X0151291Y0120732D01*
X0151875Y0120149D01*
X0151875Y0117813D01*
X0151291Y0117229D01*
X0150123Y0117229D01*
X0149539Y0117813D01*
X0151875Y0120149D01*
X0105850Y0037649D02*
X0105266Y0038232D01*
X0104098Y0038232D01*
X0103515Y0037649D01*
X0103515Y0035313D01*
X0104098Y0034729D01*
X0105266Y0034729D01*
X0105850Y0035313D01*
X0108949Y0038232D02*
X0107782Y0038232D01*
X0107198Y0037649D01*
X0107198Y0035313D01*
X0107782Y0034729D01*
X0108949Y0034729D01*
X0109533Y0035313D01*
X0109533Y0037649D01*
X0108949Y0038232D01*
X0110881Y0034729D02*
X0110881Y0038232D01*
X0112049Y0037065D01*
X0113216Y0038232D01*
X0113216Y0034729D01*
X0094515Y0124229D02*
X0094515Y0127732D01*
X0096266Y0127732D01*
X0096850Y0127149D01*
X0096850Y0125981D01*
X0096266Y0125397D01*
X0094515Y0125397D01*
X0095682Y0125397D02*
X0096850Y0124229D01*
X0100533Y0127732D02*
X0098198Y0127732D01*
X0098198Y0124229D01*
X0100533Y0124229D01*
X0099365Y0125981D02*
X0098198Y0125981D01*
X0104216Y0127149D02*
X0103632Y0127732D01*
X0102465Y0127732D01*
X0101881Y0127149D01*
X0101881Y0126565D01*
X0102465Y0125981D01*
X0103632Y0125981D01*
X0104216Y0125397D01*
X0104216Y0124813D01*
X0103632Y0124229D01*
X0102465Y0124229D01*
X0101881Y0124813D01*
X0107899Y0127732D02*
X0105564Y0127732D01*
X0105564Y0124229D01*
X0107899Y0124229D01*
X0106732Y0125981D02*
X0105564Y0125981D01*
X0110415Y0124229D02*
X0110415Y0127732D01*
X0111582Y0127732D02*
X0109247Y0127732D01*
X0164515Y0072732D02*
X0164515Y0069229D01*
X0166850Y0069229D01*
X0168198Y0069229D02*
X0168198Y0072732D01*
X0169949Y0072732D01*
X0170533Y0072149D01*
X0170533Y0070981D01*
X0169949Y0070397D01*
X0168198Y0070397D01*
X0174216Y0072149D02*
X0173632Y0072732D01*
X0172465Y0072732D01*
X0171881Y0072149D01*
X0171881Y0069813D01*
X0172465Y0069229D01*
X0173632Y0069229D01*
X0174216Y0069813D01*
X0175564Y0071565D02*
X0176732Y0072732D01*
X0176732Y0069229D01*
X0177899Y0069229D02*
X0175564Y0069229D01*
X0179247Y0071565D02*
X0180415Y0072732D01*
X0180415Y0069229D01*
X0181582Y0069229D02*
X0179247Y0069229D01*
X0182930Y0072732D02*
X0182930Y0069813D01*
X0183514Y0069229D01*
X0184682Y0069229D01*
X0185266Y0069813D01*
X0185266Y0072732D01*
X0186613Y0072149D02*
X0187197Y0072732D01*
X0188365Y0072732D01*
X0188949Y0072149D01*
X0188949Y0071565D01*
X0188365Y0070981D01*
X0187781Y0070981D01*
X0188365Y0070981D02*
X0188949Y0070397D01*
X0188949Y0069813D01*
X0188365Y0069229D01*
X0187197Y0069229D01*
X0186613Y0069813D01*
X0192632Y0072732D02*
X0190297Y0072732D01*
X0190297Y0070981D01*
X0191464Y0071565D01*
X0192048Y0071565D01*
X0192632Y0070981D01*
X0192632Y0069813D01*
X0192048Y0069229D01*
X0190880Y0069229D01*
X0190297Y0069813D01*
X0169682Y0081229D02*
X0169682Y0084732D01*
X0168515Y0084732D02*
X0170850Y0084732D01*
X0172198Y0081229D02*
X0172198Y0083565D01*
X0173365Y0084732D01*
X0174533Y0083565D01*
X0174533Y0081229D01*
X0174533Y0082981D02*
X0172198Y0082981D01*
X0175881Y0081229D02*
X0175881Y0084732D01*
X0177632Y0084732D01*
X0178216Y0084149D01*
X0178216Y0082981D01*
X0177632Y0082397D01*
X0175881Y0082397D01*
X0177049Y0082397D02*
X0178216Y0081229D01*
X0181899Y0084149D02*
X0181315Y0084732D01*
X0180148Y0084732D01*
X0179564Y0084149D01*
X0179564Y0081813D01*
X0180148Y0081229D01*
X0181315Y0081229D01*
X0181899Y0081813D01*
X0181899Y0082981D01*
X0180732Y0082981D01*
X0185582Y0084732D02*
X0183247Y0084732D01*
X0183247Y0081229D01*
X0185582Y0081229D01*
X0184415Y0082981D02*
X0183247Y0082981D01*
X0188098Y0081229D02*
X0188098Y0084732D01*
X0186930Y0084732D02*
X0189266Y0084732D01*
X0089198Y0086944D02*
X0089198Y0088913D01*
X0068331Y0088913D02*
X0068331Y0086944D01*
X0087229Y0088913D02*
X0089198Y0088913D01*
X0070300Y0088913D02*
X0068331Y0088913D01*
X0087229Y0068046D02*
X0089198Y0068046D01*
X0070300Y0068046D02*
X0068331Y0068046D01*
X0089198Y0068046D02*
X0089198Y0070015D01*
X0068331Y0070015D02*
X0068331Y0068046D01*
X0072265Y0098979D02*
X0072265Y0109979D01*
X0087265Y0109979D01*
X0087265Y0098979D01*
X0072265Y0098979D01*
X0164265Y0090979D02*
X0180265Y0090979D01*
X0193265Y0090979D01*
X0193265Y0095979D01*
X0193265Y0115979D01*
X0164265Y0115979D01*
X0164265Y0090979D01*
X0193265Y0095979D02*
X0180265Y0095979D01*
X0180265Y0090979D01*
X0164265Y0040979D02*
X0180265Y0040979D01*
X0193265Y0040979D01*
X0193265Y0045979D01*
X0193265Y0065979D01*
X0164265Y0065979D01*
X0164265Y0040979D01*
X0193265Y0045979D02*
X0180265Y0045979D01*
X0180265Y0040979D01*
D11*
X0123839Y0100983D02*
X0122265Y0103661D01*
X0120690Y0100983D01*
X0123839Y0100983D01*
X0123839Y0104054D02*
X0120690Y0104054D01*
X0123828Y0104082D02*
X0123828Y0104987D01*
X0120678Y0104042D02*
X0120678Y0103137D01*
X0053165Y0117479D02*
X0053165Y0103479D01*
X0027365Y0103479D01*
X0027365Y0117479D01*
X0053165Y0117479D01*
D12*
X0039454Y0067881D02*
X0033076Y0067881D01*
X0033076Y0079078D02*
X0039454Y0079078D01*
X0033076Y0075535D02*
X0033076Y0075164D01*
X0033076Y0071794D02*
X0033076Y0071424D01*
X0033076Y0078708D02*
X0033076Y0079078D01*
X0033076Y0068251D02*
X0033076Y0067881D01*
X0039454Y0067881D02*
X0039454Y0068251D01*
X0039454Y0078708D02*
X0039454Y0079078D01*
X0039454Y0071794D02*
X0039454Y0071424D01*
X0039454Y0075164D02*
X0039454Y0075535D01*
X0034099Y0077416D02*
X0034101Y0077455D01*
X0034107Y0077494D01*
X0034117Y0077532D01*
X0034130Y0077569D01*
X0034147Y0077604D01*
X0034167Y0077638D01*
X0034191Y0077669D01*
X0034218Y0077698D01*
X0034247Y0077724D01*
X0034279Y0077747D01*
X0034313Y0077767D01*
X0034349Y0077783D01*
X0034386Y0077795D01*
X0034425Y0077804D01*
X0034464Y0077809D01*
X0034503Y0077810D01*
X0034542Y0077807D01*
X0034581Y0077800D01*
X0034618Y0077789D01*
X0034655Y0077775D01*
X0034690Y0077757D01*
X0034723Y0077736D01*
X0034754Y0077711D01*
X0034782Y0077684D01*
X0034807Y0077654D01*
X0034829Y0077621D01*
X0034848Y0077587D01*
X0034863Y0077551D01*
X0034875Y0077513D01*
X0034883Y0077475D01*
X0034887Y0077436D01*
X0034887Y0077396D01*
X0034883Y0077357D01*
X0034875Y0077319D01*
X0034863Y0077281D01*
X0034848Y0077245D01*
X0034829Y0077211D01*
X0034807Y0077178D01*
X0034782Y0077148D01*
X0034754Y0077121D01*
X0034723Y0077096D01*
X0034690Y0077075D01*
X0034655Y0077057D01*
X0034618Y0077043D01*
X0034581Y0077032D01*
X0034542Y0077025D01*
X0034503Y0077022D01*
X0034464Y0077023D01*
X0034425Y0077028D01*
X0034386Y0077037D01*
X0034349Y0077049D01*
X0034313Y0077065D01*
X0034279Y0077085D01*
X0034247Y0077108D01*
X0034218Y0077134D01*
X0034191Y0077163D01*
X0034167Y0077194D01*
X0034147Y0077228D01*
X0034130Y0077263D01*
X0034117Y0077300D01*
X0034107Y0077338D01*
X0034101Y0077377D01*
X0034099Y0077416D01*
D13*
X0088607Y0090290D03*
D14*
X0087765Y0045472D03*
X0108265Y0045472D03*
X0067265Y0044487D03*
D15*
X0071765Y0102479D02*
X0071765Y0098479D01*
X0077265Y0098479D01*
X0163765Y0086979D02*
X0193765Y0086979D01*
X0193765Y0036979D02*
X0163765Y0036979D01*
D16*
X0096859Y0122810D02*
X0108670Y0122810D01*
X0108670Y0114149D01*
X0096859Y0114149D01*
X0096859Y0122810D01*
M02*
