%
M48
M72
T01C0.01000
T02C0.03937
T03C0.12598
%
T01
X41265Y49979
X67265Y51479
X71765Y55979
X71265Y61479
X67265Y65479
X82265Y52479
X83265Y47979
X81765Y43479
X91265Y55479
X96265Y54979
X103265Y50979
X98765Y45479
X113765Y53979
X123265Y58979
X132765Y61479
X113765Y71479
X104765Y67979
X104765Y79479
X114265Y92479
X127186Y83401
X122765Y78479
X85265Y92979
X71765Y93479
X66765Y90479
X62265Y95479
X58765Y89479
X53265Y90979
X45765Y89479
X59765Y80979
X78765Y78479
X49265Y106979
X52765Y122479
X27765Y85479
X103765Y112479
X160765Y113479
X161265Y61479
X162265Y48479
X160765Y43479
X186765Y39479
T02
X25765Y32979
X45765Y32979
X140765Y48479
X150765Y48479
X150765Y58479
X140765Y58479
X140765Y68479
X150765Y68479
X150765Y78479
X140765Y78479
X140765Y88479
X150765Y88479
X150765Y98479
X140765Y98479
X140765Y108479
X150765Y108479
T03
X15765Y108479
X15765Y48479
M30
