G75*
%MOIN*%
%OFA0B0*%
%FSLAX25Y25*%
%IPPOS*%
%LPD*%
%AMOC8*
5,1,8,0,0,1.08239X$1,22.5*
%
%ADD10C,0.05937*%
%ADD11R,0.05937X0.05937*%
%ADD12OC8,0.05937*%
%ADD13OC8,0.02600*%
%ADD14C,0.01600*%
%ADD15C,0.00600*%
D10*
X0140765Y0048479D03*
X0140765Y0058479D03*
X0150765Y0058479D03*
X0150765Y0068479D03*
X0140765Y0068479D03*
X0140765Y0078479D03*
X0150765Y0078479D03*
X0150765Y0088479D03*
X0140765Y0088479D03*
X0140765Y0098479D03*
X0150765Y0098479D03*
X0150765Y0108479D03*
X0140765Y0108479D03*
D11*
X0150765Y0048479D03*
D12*
X0045765Y0032979D03*
X0025765Y0032979D03*
D13*
X0041265Y0049979D03*
X0067265Y0051479D03*
X0071765Y0055979D03*
X0071265Y0061479D03*
X0067265Y0065479D03*
X0082265Y0052479D03*
X0083265Y0047979D03*
X0081765Y0043479D03*
X0091265Y0055479D03*
X0096265Y0054979D03*
X0103265Y0050979D03*
X0098765Y0045479D03*
X0113765Y0053979D03*
X0123265Y0058979D03*
X0132765Y0061479D03*
X0113765Y0071479D03*
X0104765Y0067979D03*
X0104765Y0079479D03*
X0114265Y0092479D03*
X0127186Y0083401D03*
X0122765Y0078479D03*
X0085265Y0092979D03*
X0071765Y0093479D03*
X0066765Y0090479D03*
X0062265Y0095479D03*
X0058765Y0089479D03*
X0053265Y0090979D03*
X0045765Y0089479D03*
X0059765Y0080979D03*
X0078765Y0078479D03*
X0049265Y0106979D03*
X0052765Y0122479D03*
X0027765Y0085479D03*
X0103765Y0112479D03*
X0160765Y0113479D03*
X0161265Y0061479D03*
X0162265Y0048479D03*
X0160765Y0043479D03*
X0186765Y0039479D03*
D14*
X0104765Y0067979D02*
X0094265Y0078479D01*
X0078765Y0078479D01*
X0049265Y0106979D02*
X0027765Y0085479D01*
D15*
X0006565Y0127679D02*
X0006565Y0029279D01*
X0023428Y0029279D01*
X0021496Y0031211D01*
X0021496Y0032679D01*
X0025465Y0032679D01*
X0025465Y0033279D01*
X0021496Y0033279D01*
X0021496Y0034748D01*
X0023996Y0037248D01*
X0025465Y0037248D01*
X0025465Y0033279D01*
X0026065Y0033279D01*
X0030033Y0033279D01*
X0030033Y0034748D01*
X0027533Y0037248D01*
X0026065Y0037248D01*
X0026065Y0033279D01*
X0026065Y0032679D01*
X0030033Y0032679D01*
X0030033Y0031211D01*
X0028101Y0029279D01*
X0043994Y0029279D01*
X0041896Y0031377D01*
X0041896Y0034582D01*
X0044162Y0036848D01*
X0047367Y0036848D01*
X0049633Y0034582D01*
X0049633Y0031377D01*
X0047535Y0029279D01*
X0196965Y0029279D01*
X0196965Y0127679D01*
X0006565Y0127679D01*
X0006565Y0127557D02*
X0196965Y0127557D01*
X0196965Y0126959D02*
X0006565Y0126959D01*
X0006565Y0126360D02*
X0196965Y0126360D01*
X0196965Y0125762D02*
X0006565Y0125762D01*
X0006565Y0125163D02*
X0196965Y0125163D01*
X0196965Y0124565D02*
X0054356Y0124565D01*
X0053842Y0125079D02*
X0055365Y0123556D01*
X0055365Y0122479D01*
X0052765Y0122479D01*
X0052765Y0122479D01*
X0052765Y0119879D01*
X0053842Y0119879D01*
X0055365Y0121402D01*
X0055365Y0122479D01*
X0052765Y0122479D01*
X0052764Y0122479D01*
X0050165Y0122479D01*
X0050165Y0121402D01*
X0051688Y0119879D01*
X0052764Y0119879D01*
X0052764Y0122479D01*
X0052764Y0122479D01*
X0050165Y0122479D01*
X0050165Y0123556D01*
X0051688Y0125079D01*
X0052764Y0125079D01*
X0052764Y0122480D01*
X0052765Y0122480D01*
X0052765Y0125079D01*
X0053842Y0125079D01*
X0052765Y0124565D02*
X0052764Y0124565D01*
X0052764Y0123966D02*
X0052765Y0123966D01*
X0052764Y0123368D02*
X0052765Y0123368D01*
X0052764Y0122769D02*
X0052765Y0122769D01*
X0052764Y0122171D02*
X0052765Y0122171D01*
X0052764Y0121572D02*
X0052765Y0121572D01*
X0052764Y0120974D02*
X0052765Y0120974D01*
X0052764Y0120375D02*
X0052765Y0120375D01*
X0054337Y0120375D02*
X0196965Y0120375D01*
X0196965Y0119777D02*
X0006565Y0119777D01*
X0006565Y0120375D02*
X0051192Y0120375D01*
X0050593Y0120974D02*
X0006565Y0120974D01*
X0006565Y0121572D02*
X0050165Y0121572D01*
X0050165Y0122171D02*
X0006565Y0122171D01*
X0006565Y0122769D02*
X0050165Y0122769D01*
X0050165Y0123368D02*
X0006565Y0123368D01*
X0006565Y0123966D02*
X0050574Y0123966D01*
X0051173Y0124565D02*
X0006565Y0124565D01*
X0006565Y0119178D02*
X0196965Y0119178D01*
X0196965Y0118580D02*
X0006565Y0118580D01*
X0006565Y0117981D02*
X0196965Y0117981D01*
X0196965Y0117383D02*
X0006565Y0117383D01*
X0006565Y0116784D02*
X0196965Y0116784D01*
X0196965Y0116186D02*
X0018324Y0116186D01*
X0017376Y0116579D02*
X0014154Y0116579D01*
X0011177Y0115346D01*
X0008898Y0113067D01*
X0007665Y0110090D01*
X0007665Y0106868D01*
X0008898Y0103892D01*
X0011177Y0101613D01*
X0014154Y0100380D01*
X0017376Y0100380D01*
X0020352Y0101613D01*
X0022631Y0103892D01*
X0023864Y0106868D01*
X0023864Y0110090D01*
X0022631Y0113067D01*
X0020352Y0115346D01*
X0017376Y0116579D01*
X0019769Y0115587D02*
X0159761Y0115587D01*
X0159853Y0115679D02*
X0158565Y0114391D01*
X0158565Y0112568D01*
X0159565Y0111568D01*
X0159565Y0088976D01*
X0152525Y0081937D01*
X0151534Y0082348D01*
X0149995Y0082348D01*
X0148573Y0081759D01*
X0147485Y0080671D01*
X0146896Y0079249D01*
X0146896Y0077710D01*
X0147307Y0076719D01*
X0145268Y0074679D01*
X0141699Y0074679D01*
X0142956Y0075200D01*
X0144044Y0076288D01*
X0144633Y0077710D01*
X0144633Y0079249D01*
X0144044Y0080671D01*
X0142956Y0081759D01*
X0141889Y0082201D01*
X0146183Y0082201D01*
X0149004Y0085022D01*
X0149995Y0084611D01*
X0151534Y0084611D01*
X0152956Y0085200D01*
X0154044Y0086288D01*
X0154633Y0087710D01*
X0154633Y0089249D01*
X0154044Y0090671D01*
X0152956Y0091759D01*
X0151534Y0092348D01*
X0149995Y0092348D01*
X0148573Y0091759D01*
X0147485Y0090671D01*
X0146896Y0089249D01*
X0146896Y0087710D01*
X0147307Y0086719D01*
X0145189Y0084601D01*
X0129097Y0084601D01*
X0128097Y0085601D01*
X0126275Y0085601D01*
X0124986Y0084312D01*
X0124986Y0082489D01*
X0126275Y0081201D01*
X0128097Y0081201D01*
X0129097Y0082201D01*
X0139640Y0082201D01*
X0138573Y0081759D01*
X0137485Y0080671D01*
X0137074Y0079679D01*
X0124676Y0079679D01*
X0123676Y0080679D01*
X0121853Y0080679D01*
X0120565Y0079391D01*
X0120565Y0077568D01*
X0121853Y0076279D01*
X0123676Y0076279D01*
X0124676Y0077279D01*
X0137074Y0077279D01*
X0137485Y0076288D01*
X0138573Y0075200D01*
X0139830Y0074679D01*
X0119762Y0074679D01*
X0095465Y0098976D01*
X0094762Y0099679D01*
X0068768Y0099679D01*
X0066268Y0097179D01*
X0065565Y0096476D01*
X0065565Y0092391D01*
X0064565Y0091391D01*
X0064565Y0089568D01*
X0065853Y0088279D01*
X0067676Y0088279D01*
X0068965Y0089568D01*
X0068965Y0091391D01*
X0067965Y0092391D01*
X0067965Y0095482D01*
X0069762Y0097279D01*
X0093768Y0097279D01*
X0118768Y0072279D01*
X0139830Y0072279D01*
X0138573Y0071759D01*
X0137485Y0070671D01*
X0137074Y0069679D01*
X0120268Y0069679D01*
X0119565Y0068976D01*
X0117268Y0066679D01*
X0106576Y0066679D01*
X0106965Y0067068D01*
X0106965Y0068891D01*
X0105676Y0070179D01*
X0104969Y0070179D01*
X0094969Y0080179D01*
X0080176Y0080179D01*
X0079676Y0080679D01*
X0077853Y0080679D01*
X0076565Y0079391D01*
X0076565Y0077568D01*
X0077853Y0076279D01*
X0079676Y0076279D01*
X0080176Y0076779D01*
X0093560Y0076779D01*
X0102565Y0067775D01*
X0102565Y0067068D01*
X0102953Y0066679D01*
X0069176Y0066679D01*
X0068176Y0067679D01*
X0066353Y0067679D01*
X0065065Y0066391D01*
X0065065Y0064568D01*
X0066353Y0063279D01*
X0068176Y0063279D01*
X0069176Y0064279D01*
X0072368Y0064279D01*
X0072065Y0063976D01*
X0071768Y0063679D01*
X0070353Y0063679D01*
X0069065Y0062391D01*
X0069065Y0060568D01*
X0070353Y0059279D01*
X0072176Y0059279D01*
X0073465Y0060568D01*
X0073465Y0061982D01*
X0073762Y0062279D01*
X0076368Y0062279D01*
X0072268Y0058179D01*
X0070853Y0058179D01*
X0069565Y0056891D01*
X0069565Y0055068D01*
X0070853Y0053779D01*
X0072676Y0053779D01*
X0073965Y0055068D01*
X0073965Y0056482D01*
X0078012Y0060529D01*
X0094618Y0060529D01*
X0094565Y0060476D01*
X0091768Y0057679D01*
X0090353Y0057679D01*
X0089065Y0056391D01*
X0089065Y0054568D01*
X0090353Y0053279D01*
X0092176Y0053279D01*
X0093465Y0054568D01*
X0093465Y0055982D01*
X0096262Y0058779D01*
X0120262Y0058779D01*
X0121065Y0059582D01*
X0121065Y0058068D01*
X0122065Y0057068D01*
X0122065Y0044982D01*
X0125065Y0041982D01*
X0125768Y0041279D01*
X0155262Y0041279D01*
X0159262Y0045279D01*
X0159965Y0045982D01*
X0159965Y0058482D01*
X0160762Y0059279D01*
X0162176Y0059279D01*
X0163465Y0060568D01*
X0163465Y0062391D01*
X0162176Y0063679D01*
X0160353Y0063679D01*
X0159065Y0062391D01*
X0159065Y0060976D01*
X0157565Y0059476D01*
X0157565Y0046976D01*
X0154268Y0043679D01*
X0126762Y0043679D01*
X0124465Y0045976D01*
X0124465Y0057068D01*
X0125465Y0058068D01*
X0125465Y0059891D01*
X0125076Y0060279D01*
X0130853Y0060279D01*
X0131853Y0059279D01*
X0133676Y0059279D01*
X0134965Y0060568D01*
X0134965Y0062391D01*
X0134576Y0062779D01*
X0134768Y0062779D01*
X0135065Y0062482D01*
X0135065Y0054982D01*
X0137065Y0052982D01*
X0137768Y0052279D01*
X0139830Y0052279D01*
X0138573Y0051759D01*
X0137485Y0050671D01*
X0136896Y0049249D01*
X0136896Y0047710D01*
X0137485Y0046288D01*
X0138573Y0045200D01*
X0139995Y0044611D01*
X0141534Y0044611D01*
X0142956Y0045200D01*
X0144044Y0046288D01*
X0144633Y0047710D01*
X0144633Y0049249D01*
X0144044Y0050671D01*
X0142956Y0051759D01*
X0141699Y0052279D01*
X0146262Y0052279D01*
X0149004Y0055022D01*
X0149995Y0054611D01*
X0151534Y0054611D01*
X0152956Y0055200D01*
X0154044Y0056288D01*
X0154633Y0057710D01*
X0154633Y0059249D01*
X0154044Y0060671D01*
X0152956Y0061759D01*
X0151534Y0062348D01*
X0149995Y0062348D01*
X0148573Y0061759D01*
X0147485Y0060671D01*
X0146896Y0059249D01*
X0146896Y0057710D01*
X0147307Y0056719D01*
X0145268Y0054679D01*
X0141699Y0054679D01*
X0142956Y0055200D01*
X0144044Y0056288D01*
X0144633Y0057710D01*
X0144633Y0059249D01*
X0144044Y0060671D01*
X0142956Y0061759D01*
X0141699Y0062279D01*
X0146262Y0062279D01*
X0149004Y0065022D01*
X0149995Y0064611D01*
X0151534Y0064611D01*
X0152956Y0065200D01*
X0154044Y0066288D01*
X0154633Y0067710D01*
X0154633Y0069249D01*
X0154044Y0070671D01*
X0152956Y0071759D01*
X0151534Y0072348D01*
X0149995Y0072348D01*
X0148573Y0071759D01*
X0147485Y0070671D01*
X0146896Y0069249D01*
X0146896Y0067710D01*
X0147307Y0066719D01*
X0145268Y0064679D01*
X0141699Y0064679D01*
X0142956Y0065200D01*
X0144044Y0066288D01*
X0144633Y0067710D01*
X0144633Y0069249D01*
X0144044Y0070671D01*
X0142956Y0071759D01*
X0141699Y0072279D01*
X0146262Y0072279D01*
X0146965Y0072982D01*
X0149004Y0075022D01*
X0149995Y0074611D01*
X0151534Y0074611D01*
X0152956Y0075200D01*
X0154044Y0076288D01*
X0154633Y0077710D01*
X0154633Y0079249D01*
X0154222Y0080240D01*
X0161965Y0087982D01*
X0161965Y0111568D01*
X0162965Y0112568D01*
X0162965Y0114391D01*
X0161676Y0115679D01*
X0159853Y0115679D01*
X0159163Y0114989D02*
X0104932Y0114989D01*
X0104842Y0115079D02*
X0103765Y0115079D01*
X0103765Y0112480D01*
X0103764Y0112480D01*
X0103764Y0112479D02*
X0103764Y0112479D01*
X0101165Y0112479D01*
X0101165Y0111402D01*
X0102688Y0109879D01*
X0103764Y0109879D01*
X0103764Y0112479D01*
X0103765Y0112479D01*
X0103765Y0112479D01*
X0106365Y0112479D01*
X0106365Y0111402D01*
X0104842Y0109879D01*
X0103765Y0109879D01*
X0103765Y0112479D01*
X0106365Y0112479D01*
X0106365Y0113556D01*
X0104842Y0115079D01*
X0105531Y0114390D02*
X0158565Y0114390D01*
X0158565Y0113792D02*
X0106129Y0113792D01*
X0106365Y0113193D02*
X0158565Y0113193D01*
X0158565Y0112595D02*
X0141913Y0112595D01*
X0141764Y0112643D02*
X0141101Y0112748D01*
X0141065Y0112748D01*
X0141065Y0108779D01*
X0145033Y0108779D01*
X0145033Y0108815D01*
X0144928Y0109479D01*
X0144720Y0110118D01*
X0144415Y0110717D01*
X0144020Y0111260D01*
X0143545Y0111735D01*
X0143002Y0112130D01*
X0142403Y0112435D01*
X0141764Y0112643D01*
X0141065Y0112595D02*
X0140465Y0112595D01*
X0140465Y0112748D02*
X0140429Y0112748D01*
X0139765Y0112643D01*
X0139126Y0112435D01*
X0138527Y0112130D01*
X0137984Y0111735D01*
X0137509Y0111260D01*
X0137114Y0110717D01*
X0136809Y0110118D01*
X0136601Y0109479D01*
X0136496Y0108815D01*
X0136496Y0108779D01*
X0140465Y0108779D01*
X0140465Y0108179D01*
X0141065Y0108179D01*
X0141065Y0108779D01*
X0140465Y0108779D01*
X0140465Y0112748D01*
X0140465Y0111996D02*
X0141065Y0111996D01*
X0141065Y0111398D02*
X0140465Y0111398D01*
X0140465Y0110799D02*
X0141065Y0110799D01*
X0141065Y0110201D02*
X0140465Y0110201D01*
X0140465Y0109602D02*
X0141065Y0109602D01*
X0141065Y0109004D02*
X0140465Y0109004D01*
X0140465Y0108405D02*
X0050950Y0108405D01*
X0051465Y0107891D02*
X0050176Y0109179D01*
X0048353Y0109179D01*
X0047065Y0107891D01*
X0047065Y0107184D01*
X0027560Y0087679D01*
X0026853Y0087679D01*
X0025565Y0086391D01*
X0025565Y0084568D01*
X0026853Y0083279D01*
X0028676Y0083279D01*
X0029965Y0084568D01*
X0029965Y0085275D01*
X0049469Y0104779D01*
X0050176Y0104779D01*
X0051465Y0106068D01*
X0051465Y0107891D01*
X0051465Y0107806D02*
X0058395Y0107806D01*
X0058065Y0107476D02*
X0055065Y0104476D01*
X0055065Y0094476D01*
X0053768Y0093179D01*
X0052353Y0093179D01*
X0051065Y0091891D01*
X0051065Y0090068D01*
X0052353Y0088779D01*
X0054176Y0088779D01*
X0055465Y0090068D01*
X0055465Y0091482D01*
X0056762Y0092779D01*
X0057465Y0093482D01*
X0057465Y0103482D01*
X0059762Y0105779D01*
X0096762Y0105779D01*
X0097465Y0106482D01*
X0097465Y0107476D01*
X0096762Y0108179D01*
X0058768Y0108179D01*
X0058065Y0107476D01*
X0057796Y0107208D02*
X0051465Y0107208D01*
X0051465Y0106609D02*
X0057198Y0106609D01*
X0056599Y0106011D02*
X0051407Y0106011D01*
X0050809Y0105412D02*
X0056001Y0105412D01*
X0055402Y0104814D02*
X0050210Y0104814D01*
X0048905Y0104215D02*
X0055065Y0104215D01*
X0055065Y0103617D02*
X0048306Y0103617D01*
X0047708Y0103018D02*
X0055065Y0103018D01*
X0055065Y0102420D02*
X0047109Y0102420D01*
X0046511Y0101821D02*
X0055065Y0101821D01*
X0055065Y0101223D02*
X0045912Y0101223D01*
X0045314Y0100624D02*
X0055065Y0100624D01*
X0055065Y0100026D02*
X0044715Y0100026D01*
X0044117Y0099427D02*
X0055065Y0099427D01*
X0055065Y0098829D02*
X0043518Y0098829D01*
X0042920Y0098230D02*
X0055065Y0098230D01*
X0055065Y0097632D02*
X0042321Y0097632D01*
X0041723Y0097033D02*
X0055065Y0097033D01*
X0055065Y0096435D02*
X0041124Y0096435D01*
X0040526Y0095836D02*
X0055065Y0095836D01*
X0055065Y0095238D02*
X0039927Y0095238D01*
X0039329Y0094639D02*
X0055065Y0094639D01*
X0054629Y0094041D02*
X0038730Y0094041D01*
X0038132Y0093442D02*
X0054030Y0093442D01*
X0052018Y0092844D02*
X0037533Y0092844D01*
X0036934Y0092245D02*
X0051419Y0092245D01*
X0051065Y0091647D02*
X0047274Y0091647D01*
X0046842Y0092079D02*
X0045765Y0092079D01*
X0045765Y0089480D01*
X0045764Y0089480D01*
X0045764Y0089479D02*
X0045764Y0089479D01*
X0043165Y0089479D01*
X0043165Y0088402D01*
X0044688Y0086879D01*
X0045764Y0086879D01*
X0045764Y0089479D01*
X0045765Y0089479D01*
X0045765Y0089479D01*
X0048365Y0089479D01*
X0048365Y0088402D01*
X0046842Y0086879D01*
X0045765Y0086879D01*
X0045765Y0089479D01*
X0048365Y0089479D01*
X0048365Y0090556D01*
X0046842Y0092079D01*
X0045764Y0092079D02*
X0045764Y0089480D01*
X0045764Y0089479D02*
X0043165Y0089479D01*
X0043165Y0090556D01*
X0044688Y0092079D01*
X0045764Y0092079D01*
X0045764Y0091647D02*
X0045765Y0091647D01*
X0045764Y0091048D02*
X0045765Y0091048D01*
X0045764Y0090450D02*
X0045765Y0090450D01*
X0045764Y0089851D02*
X0045765Y0089851D01*
X0045764Y0089253D02*
X0045765Y0089253D01*
X0045764Y0088654D02*
X0045765Y0088654D01*
X0045764Y0088056D02*
X0045765Y0088056D01*
X0045764Y0087457D02*
X0045765Y0087457D01*
X0047419Y0087457D02*
X0057676Y0087457D01*
X0057853Y0087279D02*
X0059676Y0087279D01*
X0060965Y0088568D01*
X0060965Y0090391D01*
X0059965Y0091391D01*
X0059965Y0094103D01*
X0061188Y0092879D01*
X0062264Y0092879D01*
X0062264Y0095479D01*
X0062265Y0095479D01*
X0062265Y0095479D01*
X0064865Y0095479D01*
X0064865Y0094402D01*
X0063342Y0092879D01*
X0062265Y0092879D01*
X0062265Y0095479D01*
X0064865Y0095479D01*
X0064865Y0096556D01*
X0063342Y0098079D01*
X0062265Y0098079D01*
X0062265Y0095480D01*
X0062264Y0095480D01*
X0062264Y0098079D01*
X0061188Y0098079D01*
X0059965Y0096856D01*
X0059965Y0101482D01*
X0061762Y0103279D01*
X0093268Y0103279D01*
X0109268Y0087279D01*
X0137074Y0087279D01*
X0137485Y0086288D01*
X0138573Y0085200D01*
X0139995Y0084611D01*
X0141534Y0084611D01*
X0142956Y0085200D01*
X0144044Y0086288D01*
X0144633Y0087710D01*
X0144633Y0089249D01*
X0144044Y0090671D01*
X0142956Y0091759D01*
X0141699Y0092279D01*
X0146262Y0092279D01*
X0149004Y0095022D01*
X0149995Y0094611D01*
X0151534Y0094611D01*
X0152956Y0095200D01*
X0154044Y0096288D01*
X0154633Y0097710D01*
X0154633Y0099249D01*
X0154044Y0100671D01*
X0152956Y0101759D01*
X0151534Y0102348D01*
X0149995Y0102348D01*
X0148573Y0101759D01*
X0147485Y0100671D01*
X0146896Y0099249D01*
X0146896Y0097710D01*
X0147307Y0096719D01*
X0145268Y0094679D01*
X0141699Y0094679D01*
X0142956Y0095200D01*
X0144044Y0096288D01*
X0144633Y0097710D01*
X0144633Y0099249D01*
X0144044Y0100671D01*
X0142956Y0101759D01*
X0141534Y0102348D01*
X0139995Y0102348D01*
X0138573Y0101759D01*
X0137485Y0100671D01*
X0137074Y0099679D01*
X0104268Y0099679D01*
X0103565Y0098976D01*
X0103565Y0097982D01*
X0104268Y0097279D01*
X0137074Y0097279D01*
X0137485Y0096288D01*
X0138573Y0095200D01*
X0139830Y0094679D01*
X0113353Y0094679D01*
X0112065Y0093391D01*
X0112065Y0091568D01*
X0113353Y0090279D01*
X0115176Y0090279D01*
X0116465Y0091568D01*
X0116465Y0092279D01*
X0139830Y0092279D01*
X0138573Y0091759D01*
X0137485Y0090671D01*
X0137074Y0089679D01*
X0110262Y0089679D01*
X0094965Y0104976D01*
X0094262Y0105679D01*
X0060768Y0105679D01*
X0060065Y0104976D01*
X0057565Y0102476D01*
X0057565Y0091391D01*
X0056565Y0090391D01*
X0056565Y0088568D01*
X0057853Y0087279D01*
X0057077Y0088056D02*
X0048018Y0088056D01*
X0048365Y0088654D02*
X0056565Y0088654D01*
X0056565Y0089253D02*
X0054649Y0089253D01*
X0055248Y0089851D02*
X0056565Y0089851D01*
X0056624Y0090450D02*
X0055465Y0090450D01*
X0055465Y0091048D02*
X0057222Y0091048D01*
X0057565Y0091647D02*
X0055629Y0091647D01*
X0056227Y0092245D02*
X0057565Y0092245D01*
X0057565Y0092844D02*
X0056826Y0092844D01*
X0057424Y0093442D02*
X0057565Y0093442D01*
X0057565Y0094041D02*
X0057465Y0094041D01*
X0057465Y0094639D02*
X0057565Y0094639D01*
X0057565Y0095238D02*
X0057465Y0095238D01*
X0057465Y0095836D02*
X0057565Y0095836D01*
X0057565Y0096435D02*
X0057465Y0096435D01*
X0057465Y0097033D02*
X0057565Y0097033D01*
X0057565Y0097632D02*
X0057465Y0097632D01*
X0057465Y0098230D02*
X0057565Y0098230D01*
X0057565Y0098829D02*
X0057465Y0098829D01*
X0057465Y0099427D02*
X0057565Y0099427D01*
X0057565Y0100026D02*
X0057465Y0100026D01*
X0057465Y0100624D02*
X0057565Y0100624D01*
X0057565Y0101223D02*
X0057465Y0101223D01*
X0057465Y0101821D02*
X0057565Y0101821D01*
X0057565Y0102420D02*
X0057465Y0102420D01*
X0057465Y0103018D02*
X0058106Y0103018D01*
X0057599Y0103617D02*
X0058705Y0103617D01*
X0058198Y0104215D02*
X0059304Y0104215D01*
X0058796Y0104814D02*
X0059902Y0104814D01*
X0060065Y0104976D02*
X0060065Y0104976D01*
X0060501Y0105412D02*
X0059395Y0105412D01*
X0059265Y0106979D02*
X0096265Y0106979D01*
X0097135Y0107806D02*
X0136549Y0107806D01*
X0136601Y0107480D02*
X0136809Y0106841D01*
X0137114Y0106242D01*
X0137509Y0105699D01*
X0137984Y0105224D01*
X0138527Y0104829D01*
X0139126Y0104524D01*
X0139765Y0104316D01*
X0140429Y0104211D01*
X0140465Y0104211D01*
X0140465Y0108179D01*
X0136496Y0108179D01*
X0136496Y0108143D01*
X0136601Y0107480D01*
X0136690Y0107208D02*
X0097465Y0107208D01*
X0097465Y0106609D02*
X0136927Y0106609D01*
X0137282Y0106011D02*
X0096993Y0106011D01*
X0095726Y0104215D02*
X0140400Y0104215D01*
X0140465Y0104215D02*
X0141065Y0104215D01*
X0141065Y0104211D02*
X0141101Y0104211D01*
X0141764Y0104316D01*
X0142403Y0104524D01*
X0143002Y0104829D01*
X0143545Y0105224D01*
X0144020Y0105699D01*
X0144415Y0106242D01*
X0144720Y0106841D01*
X0144928Y0107480D01*
X0145033Y0108143D01*
X0145033Y0108179D01*
X0141065Y0108179D01*
X0141065Y0104211D01*
X0141129Y0104215D02*
X0159565Y0104215D01*
X0159565Y0103617D02*
X0096324Y0103617D01*
X0096923Y0103018D02*
X0159565Y0103018D01*
X0159565Y0102420D02*
X0097521Y0102420D01*
X0098120Y0101821D02*
X0138724Y0101821D01*
X0138037Y0101223D02*
X0098718Y0101223D01*
X0099317Y0100624D02*
X0137466Y0100624D01*
X0137218Y0100026D02*
X0099915Y0100026D01*
X0100514Y0099427D02*
X0104015Y0099427D01*
X0103565Y0098829D02*
X0101112Y0098829D01*
X0101711Y0098230D02*
X0103565Y0098230D01*
X0103915Y0097632D02*
X0102309Y0097632D01*
X0102908Y0097033D02*
X0137176Y0097033D01*
X0137424Y0096435D02*
X0103506Y0096435D01*
X0104105Y0095836D02*
X0137937Y0095836D01*
X0138535Y0095238D02*
X0104703Y0095238D01*
X0105302Y0094639D02*
X0113313Y0094639D01*
X0112715Y0094041D02*
X0105900Y0094041D01*
X0106499Y0093442D02*
X0112116Y0093442D01*
X0112065Y0092844D02*
X0107097Y0092844D01*
X0107696Y0092245D02*
X0112065Y0092245D01*
X0112065Y0091647D02*
X0108294Y0091647D01*
X0108893Y0091048D02*
X0112585Y0091048D01*
X0113183Y0090450D02*
X0109491Y0090450D01*
X0110090Y0089851D02*
X0137146Y0089851D01*
X0137393Y0090450D02*
X0115346Y0090450D01*
X0115945Y0091048D02*
X0137862Y0091048D01*
X0138461Y0091647D02*
X0116465Y0091647D01*
X0116465Y0092245D02*
X0139747Y0092245D01*
X0141782Y0092245D02*
X0149747Y0092245D01*
X0148461Y0091647D02*
X0143068Y0091647D01*
X0143667Y0091048D02*
X0147862Y0091048D01*
X0147393Y0090450D02*
X0144136Y0090450D01*
X0144384Y0089851D02*
X0147146Y0089851D01*
X0146898Y0089253D02*
X0144632Y0089253D01*
X0144633Y0088654D02*
X0146896Y0088654D01*
X0146896Y0088056D02*
X0144633Y0088056D01*
X0144528Y0087457D02*
X0147001Y0087457D01*
X0147249Y0086859D02*
X0144280Y0086859D01*
X0144016Y0086260D02*
X0146848Y0086260D01*
X0146250Y0085662D02*
X0143418Y0085662D01*
X0142626Y0085063D02*
X0145651Y0085063D01*
X0145686Y0083401D02*
X0150765Y0088479D01*
X0154384Y0089851D02*
X0159565Y0089851D01*
X0159565Y0089253D02*
X0154632Y0089253D01*
X0154633Y0088654D02*
X0159242Y0088654D01*
X0158644Y0088056D02*
X0154633Y0088056D01*
X0154528Y0087457D02*
X0158045Y0087457D01*
X0157447Y0086859D02*
X0154280Y0086859D01*
X0154016Y0086260D02*
X0156848Y0086260D01*
X0156250Y0085662D02*
X0153418Y0085662D01*
X0152626Y0085063D02*
X0155651Y0085063D01*
X0155053Y0084465D02*
X0148447Y0084465D01*
X0147848Y0083866D02*
X0154454Y0083866D01*
X0153856Y0083268D02*
X0147250Y0083268D01*
X0146651Y0082669D02*
X0153257Y0082669D01*
X0152659Y0082071D02*
X0152204Y0082071D01*
X0154257Y0080275D02*
X0196965Y0080275D01*
X0196965Y0080873D02*
X0154856Y0080873D01*
X0155454Y0081472D02*
X0196965Y0081472D01*
X0196965Y0082071D02*
X0156053Y0082071D01*
X0156651Y0082669D02*
X0196965Y0082669D01*
X0196965Y0083268D02*
X0157250Y0083268D01*
X0157848Y0083866D02*
X0196965Y0083866D01*
X0196965Y0084465D02*
X0158447Y0084465D01*
X0159045Y0085063D02*
X0196965Y0085063D01*
X0196965Y0085662D02*
X0159644Y0085662D01*
X0160242Y0086260D02*
X0196965Y0086260D01*
X0196965Y0086859D02*
X0160841Y0086859D01*
X0161439Y0087457D02*
X0196965Y0087457D01*
X0196965Y0088056D02*
X0161965Y0088056D01*
X0161965Y0088654D02*
X0196965Y0088654D01*
X0196965Y0089253D02*
X0161965Y0089253D01*
X0161965Y0089851D02*
X0196965Y0089851D01*
X0196965Y0090450D02*
X0161965Y0090450D01*
X0161965Y0091048D02*
X0196965Y0091048D01*
X0196965Y0091647D02*
X0161965Y0091647D01*
X0161965Y0092245D02*
X0196965Y0092245D01*
X0196965Y0092844D02*
X0161965Y0092844D01*
X0161965Y0093442D02*
X0196965Y0093442D01*
X0196965Y0094041D02*
X0161965Y0094041D01*
X0161965Y0094639D02*
X0196965Y0094639D01*
X0196965Y0095238D02*
X0161965Y0095238D01*
X0161965Y0095836D02*
X0196965Y0095836D01*
X0196965Y0096435D02*
X0161965Y0096435D01*
X0161965Y0097033D02*
X0196965Y0097033D01*
X0196965Y0097632D02*
X0161965Y0097632D01*
X0161965Y0098230D02*
X0196965Y0098230D01*
X0196965Y0098829D02*
X0161965Y0098829D01*
X0161965Y0099427D02*
X0196965Y0099427D01*
X0196965Y0100026D02*
X0161965Y0100026D01*
X0161965Y0100624D02*
X0196965Y0100624D01*
X0196965Y0101223D02*
X0161965Y0101223D01*
X0161965Y0101821D02*
X0196965Y0101821D01*
X0196965Y0102420D02*
X0161965Y0102420D01*
X0161965Y0103018D02*
X0196965Y0103018D01*
X0196965Y0103617D02*
X0161965Y0103617D01*
X0161965Y0104215D02*
X0196965Y0104215D01*
X0196965Y0104814D02*
X0161965Y0104814D01*
X0161965Y0105412D02*
X0196965Y0105412D01*
X0196965Y0106011D02*
X0161965Y0106011D01*
X0161965Y0106609D02*
X0196965Y0106609D01*
X0196965Y0107208D02*
X0161965Y0107208D01*
X0161965Y0107806D02*
X0196965Y0107806D01*
X0196965Y0108405D02*
X0161965Y0108405D01*
X0161965Y0109004D02*
X0196965Y0109004D01*
X0196965Y0109602D02*
X0161965Y0109602D01*
X0161965Y0110201D02*
X0196965Y0110201D01*
X0196965Y0110799D02*
X0161965Y0110799D01*
X0161965Y0111398D02*
X0196965Y0111398D01*
X0196965Y0111996D02*
X0162392Y0111996D01*
X0162965Y0112595D02*
X0196965Y0112595D01*
X0196965Y0113193D02*
X0162965Y0113193D01*
X0162965Y0113792D02*
X0196965Y0113792D01*
X0196965Y0114390D02*
X0162965Y0114390D01*
X0162367Y0114989D02*
X0196965Y0114989D01*
X0196965Y0115587D02*
X0161768Y0115587D01*
X0160765Y0113479D02*
X0160765Y0097979D01*
X0160765Y0088479D01*
X0150765Y0078479D01*
X0145765Y0073479D01*
X0130765Y0073479D01*
X0123265Y0073479D01*
X0119265Y0073479D01*
X0094265Y0098479D01*
X0077265Y0098479D01*
X0069265Y0098479D01*
X0066765Y0095979D01*
X0066765Y0090479D01*
X0064565Y0090450D02*
X0060906Y0090450D01*
X0060965Y0089851D02*
X0064565Y0089851D01*
X0064880Y0089253D02*
X0060965Y0089253D01*
X0060965Y0088654D02*
X0065479Y0088654D01*
X0068051Y0088654D02*
X0070565Y0088654D01*
X0070565Y0088056D02*
X0060452Y0088056D01*
X0059853Y0087457D02*
X0070565Y0087457D01*
X0070565Y0086859D02*
X0031548Y0086859D01*
X0032146Y0087457D02*
X0044110Y0087457D01*
X0043511Y0088056D02*
X0032745Y0088056D01*
X0033343Y0088654D02*
X0043165Y0088654D01*
X0043165Y0089253D02*
X0033942Y0089253D01*
X0034540Y0089851D02*
X0043165Y0089851D01*
X0043165Y0090450D02*
X0035139Y0090450D01*
X0035737Y0091048D02*
X0043656Y0091048D01*
X0044255Y0091647D02*
X0036336Y0091647D01*
X0033922Y0094041D02*
X0006565Y0094041D01*
X0006565Y0094639D02*
X0034520Y0094639D01*
X0035119Y0095238D02*
X0006565Y0095238D01*
X0006565Y0095836D02*
X0035717Y0095836D01*
X0036316Y0096435D02*
X0006565Y0096435D01*
X0006565Y0097033D02*
X0036914Y0097033D01*
X0037513Y0097632D02*
X0006565Y0097632D01*
X0006565Y0098230D02*
X0038111Y0098230D01*
X0038710Y0098829D02*
X0006565Y0098829D01*
X0006565Y0099427D02*
X0039308Y0099427D01*
X0039907Y0100026D02*
X0006565Y0100026D01*
X0006565Y0100624D02*
X0013564Y0100624D01*
X0012119Y0101223D02*
X0006565Y0101223D01*
X0006565Y0101821D02*
X0010969Y0101821D01*
X0010370Y0102420D02*
X0006565Y0102420D01*
X0006565Y0103018D02*
X0009772Y0103018D01*
X0009173Y0103617D02*
X0006565Y0103617D01*
X0006565Y0104215D02*
X0008764Y0104215D01*
X0008516Y0104814D02*
X0006565Y0104814D01*
X0006565Y0105412D02*
X0008268Y0105412D01*
X0008021Y0106011D02*
X0006565Y0106011D01*
X0006565Y0106609D02*
X0007773Y0106609D01*
X0007665Y0107208D02*
X0006565Y0107208D01*
X0006565Y0107806D02*
X0007665Y0107806D01*
X0007665Y0108405D02*
X0006565Y0108405D01*
X0006565Y0109004D02*
X0007665Y0109004D01*
X0007665Y0109602D02*
X0006565Y0109602D01*
X0006565Y0110201D02*
X0007711Y0110201D01*
X0007959Y0110799D02*
X0006565Y0110799D01*
X0006565Y0111398D02*
X0008207Y0111398D01*
X0008455Y0111996D02*
X0006565Y0111996D01*
X0006565Y0112595D02*
X0008703Y0112595D01*
X0009024Y0113193D02*
X0006565Y0113193D01*
X0006565Y0113792D02*
X0009623Y0113792D01*
X0010221Y0114390D02*
X0006565Y0114390D01*
X0006565Y0114989D02*
X0010820Y0114989D01*
X0011760Y0115587D02*
X0006565Y0115587D01*
X0006565Y0116186D02*
X0013205Y0116186D01*
X0020709Y0114989D02*
X0102597Y0114989D01*
X0102688Y0115079D02*
X0101165Y0113556D01*
X0101165Y0112479D01*
X0103764Y0112479D01*
X0103764Y0112480D02*
X0103764Y0115079D01*
X0102688Y0115079D01*
X0101998Y0114390D02*
X0021308Y0114390D01*
X0021906Y0113792D02*
X0101400Y0113792D01*
X0101165Y0113193D02*
X0022505Y0113193D01*
X0022827Y0112595D02*
X0101165Y0112595D01*
X0101165Y0111996D02*
X0023074Y0111996D01*
X0023322Y0111398D02*
X0101169Y0111398D01*
X0101768Y0110799D02*
X0023570Y0110799D01*
X0023818Y0110201D02*
X0102367Y0110201D01*
X0103764Y0110201D02*
X0103765Y0110201D01*
X0103764Y0110799D02*
X0103765Y0110799D01*
X0103764Y0111398D02*
X0103765Y0111398D01*
X0103764Y0111996D02*
X0103765Y0111996D01*
X0103764Y0112595D02*
X0103765Y0112595D01*
X0103764Y0113193D02*
X0103765Y0113193D01*
X0103764Y0113792D02*
X0103765Y0113792D01*
X0103764Y0114390D02*
X0103765Y0114390D01*
X0103764Y0114989D02*
X0103765Y0114989D01*
X0106365Y0112595D02*
X0139617Y0112595D01*
X0138343Y0111996D02*
X0106365Y0111996D01*
X0106360Y0111398D02*
X0137646Y0111398D01*
X0137174Y0110799D02*
X0105761Y0110799D01*
X0105163Y0110201D02*
X0136851Y0110201D01*
X0136641Y0109602D02*
X0023864Y0109602D01*
X0023864Y0109004D02*
X0048177Y0109004D01*
X0047579Y0108405D02*
X0023864Y0108405D01*
X0023864Y0107806D02*
X0047065Y0107806D01*
X0047065Y0107208D02*
X0023864Y0107208D01*
X0023757Y0106609D02*
X0046490Y0106609D01*
X0045892Y0106011D02*
X0023509Y0106011D01*
X0023261Y0105412D02*
X0045293Y0105412D01*
X0044695Y0104814D02*
X0023013Y0104814D01*
X0022765Y0104215D02*
X0044096Y0104215D01*
X0043498Y0103617D02*
X0022356Y0103617D01*
X0021758Y0103018D02*
X0042899Y0103018D01*
X0042301Y0102420D02*
X0021159Y0102420D01*
X0020561Y0101821D02*
X0041702Y0101821D01*
X0041104Y0101223D02*
X0019410Y0101223D01*
X0017965Y0100624D02*
X0040505Y0100624D01*
X0033323Y0093442D02*
X0006565Y0093442D01*
X0006565Y0092844D02*
X0032725Y0092844D01*
X0032126Y0092245D02*
X0006565Y0092245D01*
X0006565Y0091647D02*
X0031528Y0091647D01*
X0030929Y0091048D02*
X0006565Y0091048D01*
X0006565Y0090450D02*
X0030331Y0090450D01*
X0029732Y0089851D02*
X0006565Y0089851D01*
X0006565Y0089253D02*
X0029134Y0089253D01*
X0028535Y0088654D02*
X0006565Y0088654D01*
X0006565Y0088056D02*
X0027937Y0088056D01*
X0026631Y0087457D02*
X0006565Y0087457D01*
X0006565Y0086859D02*
X0026032Y0086859D01*
X0025565Y0086260D02*
X0006565Y0086260D01*
X0006565Y0085662D02*
X0025565Y0085662D01*
X0025565Y0085063D02*
X0006565Y0085063D01*
X0006565Y0084465D02*
X0025668Y0084465D01*
X0026267Y0083866D02*
X0006565Y0083866D01*
X0006565Y0083268D02*
X0070565Y0083268D01*
X0070565Y0083866D02*
X0029262Y0083866D01*
X0029861Y0084465D02*
X0070565Y0084465D01*
X0070565Y0085063D02*
X0029965Y0085063D01*
X0030351Y0085662D02*
X0070565Y0085662D01*
X0070565Y0086260D02*
X0030949Y0086260D01*
X0047873Y0091048D02*
X0051065Y0091048D01*
X0051065Y0090450D02*
X0048365Y0090450D01*
X0048365Y0089851D02*
X0051282Y0089851D01*
X0051880Y0089253D02*
X0048365Y0089253D01*
X0053265Y0090979D02*
X0056265Y0093979D01*
X0056265Y0103979D01*
X0059265Y0106979D01*
X0061265Y0104479D02*
X0093765Y0104479D01*
X0109765Y0088479D01*
X0115765Y0088479D01*
X0120765Y0088479D01*
X0140765Y0088479D01*
X0138112Y0085662D02*
X0108779Y0085662D01*
X0108181Y0086260D02*
X0137513Y0086260D01*
X0137249Y0086859D02*
X0107582Y0086859D01*
X0106984Y0087457D02*
X0109090Y0087457D01*
X0108491Y0088056D02*
X0106385Y0088056D01*
X0105787Y0088654D02*
X0107893Y0088654D01*
X0107294Y0089253D02*
X0105188Y0089253D01*
X0104590Y0089851D02*
X0106696Y0089851D01*
X0106097Y0090450D02*
X0103991Y0090450D01*
X0103393Y0091048D02*
X0105499Y0091048D01*
X0104900Y0091647D02*
X0102794Y0091647D01*
X0102196Y0092245D02*
X0104302Y0092245D01*
X0103703Y0092844D02*
X0101597Y0092844D01*
X0100999Y0093442D02*
X0103105Y0093442D01*
X0102506Y0094041D02*
X0100400Y0094041D01*
X0099802Y0094639D02*
X0101908Y0094639D01*
X0101309Y0095238D02*
X0099203Y0095238D01*
X0098605Y0095836D02*
X0100711Y0095836D01*
X0100112Y0096435D02*
X0098006Y0096435D01*
X0097408Y0097033D02*
X0099514Y0097033D01*
X0098915Y0097632D02*
X0096809Y0097632D01*
X0096211Y0098230D02*
X0098317Y0098230D01*
X0097718Y0098829D02*
X0095612Y0098829D01*
X0095014Y0099427D02*
X0097120Y0099427D01*
X0096521Y0100026D02*
X0059965Y0100026D01*
X0059965Y0100624D02*
X0095923Y0100624D01*
X0095324Y0101223D02*
X0059965Y0101223D01*
X0060304Y0101821D02*
X0094726Y0101821D01*
X0094127Y0102420D02*
X0060902Y0102420D01*
X0061501Y0103018D02*
X0093529Y0103018D01*
X0095127Y0104814D02*
X0138556Y0104814D01*
X0137795Y0105412D02*
X0094529Y0105412D01*
X0104765Y0098479D02*
X0140765Y0098479D01*
X0143592Y0095836D02*
X0146424Y0095836D01*
X0145826Y0095238D02*
X0142994Y0095238D01*
X0144105Y0096435D02*
X0147023Y0096435D01*
X0147176Y0097033D02*
X0144353Y0097033D01*
X0144601Y0097632D02*
X0146928Y0097632D01*
X0146896Y0098230D02*
X0144633Y0098230D01*
X0144633Y0098829D02*
X0146896Y0098829D01*
X0146970Y0099427D02*
X0144559Y0099427D01*
X0144311Y0100026D02*
X0147218Y0100026D01*
X0147466Y0100624D02*
X0144063Y0100624D01*
X0143492Y0101223D02*
X0148037Y0101223D01*
X0148724Y0101821D02*
X0142805Y0101821D01*
X0142973Y0104814D02*
X0149505Y0104814D01*
X0149995Y0104611D02*
X0151534Y0104611D01*
X0152956Y0105200D01*
X0154044Y0106288D01*
X0154633Y0107710D01*
X0154633Y0109249D01*
X0154044Y0110671D01*
X0152956Y0111759D01*
X0151534Y0112348D01*
X0149995Y0112348D01*
X0148573Y0111759D01*
X0147485Y0110671D01*
X0146896Y0109249D01*
X0146896Y0107710D01*
X0147485Y0106288D01*
X0148573Y0105200D01*
X0149995Y0104611D01*
X0148361Y0105412D02*
X0143734Y0105412D01*
X0144247Y0106011D02*
X0147762Y0106011D01*
X0147352Y0106609D02*
X0144602Y0106609D01*
X0144840Y0107208D02*
X0147104Y0107208D01*
X0146896Y0107806D02*
X0144980Y0107806D01*
X0145003Y0109004D02*
X0146896Y0109004D01*
X0146896Y0108405D02*
X0141065Y0108405D01*
X0141065Y0107806D02*
X0140465Y0107806D01*
X0140465Y0107208D02*
X0141065Y0107208D01*
X0141065Y0106609D02*
X0140465Y0106609D01*
X0140465Y0106011D02*
X0141065Y0106011D01*
X0141065Y0105412D02*
X0140465Y0105412D01*
X0140465Y0104814D02*
X0141065Y0104814D01*
X0144888Y0109602D02*
X0147042Y0109602D01*
X0147290Y0110201D02*
X0144678Y0110201D01*
X0144355Y0110799D02*
X0147613Y0110799D01*
X0148212Y0111398D02*
X0143883Y0111398D01*
X0143186Y0111996D02*
X0149146Y0111996D01*
X0152384Y0111996D02*
X0159137Y0111996D01*
X0159565Y0111398D02*
X0153317Y0111398D01*
X0153916Y0110799D02*
X0159565Y0110799D01*
X0159565Y0110201D02*
X0154239Y0110201D01*
X0154487Y0109602D02*
X0159565Y0109602D01*
X0159565Y0109004D02*
X0154633Y0109004D01*
X0154633Y0108405D02*
X0159565Y0108405D01*
X0159565Y0107806D02*
X0154633Y0107806D01*
X0154425Y0107208D02*
X0159565Y0107208D01*
X0159565Y0106609D02*
X0154177Y0106609D01*
X0153767Y0106011D02*
X0159565Y0106011D01*
X0159565Y0105412D02*
X0153168Y0105412D01*
X0152024Y0104814D02*
X0159565Y0104814D01*
X0159565Y0101821D02*
X0152805Y0101821D01*
X0153492Y0101223D02*
X0159565Y0101223D01*
X0159565Y0100624D02*
X0154063Y0100624D01*
X0154311Y0100026D02*
X0159565Y0100026D01*
X0159565Y0099427D02*
X0154559Y0099427D01*
X0154633Y0098829D02*
X0159565Y0098829D01*
X0159565Y0098230D02*
X0154633Y0098230D01*
X0154601Y0097632D02*
X0159565Y0097632D01*
X0159565Y0097033D02*
X0154353Y0097033D01*
X0154105Y0096435D02*
X0159565Y0096435D01*
X0159565Y0095836D02*
X0153592Y0095836D01*
X0152994Y0095238D02*
X0159565Y0095238D01*
X0159565Y0094639D02*
X0151602Y0094639D01*
X0149927Y0094639D02*
X0148621Y0094639D01*
X0148023Y0094041D02*
X0159565Y0094041D01*
X0159565Y0093442D02*
X0147424Y0093442D01*
X0146826Y0092844D02*
X0159565Y0092844D01*
X0159565Y0092245D02*
X0151782Y0092245D01*
X0153068Y0091647D02*
X0159565Y0091647D01*
X0159565Y0091048D02*
X0153667Y0091048D01*
X0154136Y0090450D02*
X0159565Y0090450D01*
X0150765Y0098479D02*
X0145765Y0093479D01*
X0118765Y0093479D01*
X0115265Y0093479D01*
X0114265Y0092479D01*
X0109378Y0085063D02*
X0125737Y0085063D01*
X0125138Y0084465D02*
X0109976Y0084465D01*
X0110575Y0083866D02*
X0124986Y0083866D01*
X0124986Y0083268D02*
X0111174Y0083268D01*
X0111772Y0082669D02*
X0124986Y0082669D01*
X0125405Y0082071D02*
X0112371Y0082071D01*
X0112969Y0081472D02*
X0126003Y0081472D01*
X0124080Y0080275D02*
X0137321Y0080275D01*
X0137688Y0080873D02*
X0113568Y0080873D01*
X0114166Y0080275D02*
X0121449Y0080275D01*
X0120850Y0079676D02*
X0114765Y0079676D01*
X0115363Y0079078D02*
X0120565Y0079078D01*
X0120565Y0078479D02*
X0115962Y0078479D01*
X0116560Y0077881D02*
X0120565Y0077881D01*
X0120850Y0077282D02*
X0117159Y0077282D01*
X0117757Y0076684D02*
X0121449Y0076684D01*
X0119553Y0074888D02*
X0139325Y0074888D01*
X0138286Y0075487D02*
X0118954Y0075487D01*
X0118356Y0076085D02*
X0137688Y0076085D01*
X0137321Y0076684D02*
X0124080Y0076684D01*
X0122765Y0078479D02*
X0140765Y0078479D01*
X0143243Y0081472D02*
X0148286Y0081472D01*
X0147688Y0080873D02*
X0143841Y0080873D01*
X0144208Y0080275D02*
X0147321Y0080275D01*
X0147073Y0079676D02*
X0144456Y0079676D01*
X0144633Y0079078D02*
X0146896Y0079078D01*
X0146896Y0078479D02*
X0144633Y0078479D01*
X0144633Y0077881D02*
X0146896Y0077881D01*
X0147073Y0077282D02*
X0144456Y0077282D01*
X0144208Y0076684D02*
X0147272Y0076684D01*
X0146673Y0076085D02*
X0143841Y0076085D01*
X0143243Y0075487D02*
X0146075Y0075487D01*
X0145476Y0074888D02*
X0142204Y0074888D01*
X0142626Y0071896D02*
X0148904Y0071896D01*
X0148112Y0071297D02*
X0143418Y0071297D01*
X0144016Y0070699D02*
X0147513Y0070699D01*
X0147249Y0070100D02*
X0144280Y0070100D01*
X0144528Y0069502D02*
X0147001Y0069502D01*
X0146896Y0068903D02*
X0144633Y0068903D01*
X0144633Y0068305D02*
X0146896Y0068305D01*
X0146898Y0067706D02*
X0144632Y0067706D01*
X0144384Y0067108D02*
X0147146Y0067108D01*
X0147097Y0066509D02*
X0144136Y0066509D01*
X0143667Y0065911D02*
X0146499Y0065911D01*
X0145900Y0065312D02*
X0143068Y0065312D01*
X0141782Y0064714D02*
X0145302Y0064714D01*
X0145765Y0063479D02*
X0150765Y0068479D01*
X0154384Y0067108D02*
X0196965Y0067108D01*
X0196965Y0067706D02*
X0154632Y0067706D01*
X0154633Y0068305D02*
X0196965Y0068305D01*
X0196965Y0068903D02*
X0154633Y0068903D01*
X0154528Y0069502D02*
X0196965Y0069502D01*
X0196965Y0070100D02*
X0154280Y0070100D01*
X0154016Y0070699D02*
X0196965Y0070699D01*
X0196965Y0071297D02*
X0153418Y0071297D01*
X0152626Y0071896D02*
X0196965Y0071896D01*
X0196965Y0072494D02*
X0146477Y0072494D01*
X0147075Y0073093D02*
X0196965Y0073093D01*
X0196965Y0073691D02*
X0147674Y0073691D01*
X0148272Y0074290D02*
X0196965Y0074290D01*
X0196965Y0074888D02*
X0152204Y0074888D01*
X0153243Y0075487D02*
X0196965Y0075487D01*
X0196965Y0076085D02*
X0153841Y0076085D01*
X0154208Y0076684D02*
X0196965Y0076684D01*
X0196965Y0077282D02*
X0154456Y0077282D01*
X0154633Y0077881D02*
X0196965Y0077881D01*
X0196965Y0078479D02*
X0154633Y0078479D01*
X0154633Y0079078D02*
X0196965Y0079078D01*
X0196965Y0079676D02*
X0154456Y0079676D01*
X0149325Y0082071D02*
X0142204Y0082071D01*
X0145686Y0083401D02*
X0127186Y0083401D01*
X0128635Y0085063D02*
X0138904Y0085063D01*
X0139325Y0082071D02*
X0128967Y0082071D01*
X0128368Y0081472D02*
X0138286Y0081472D01*
X0148871Y0074888D02*
X0149325Y0074888D01*
X0140765Y0068479D02*
X0120765Y0068479D01*
X0117765Y0065479D01*
X0075265Y0065479D01*
X0067265Y0065479D01*
X0068748Y0067108D02*
X0102565Y0067108D01*
X0102565Y0067706D02*
X0065188Y0067706D01*
X0064965Y0067482D02*
X0072965Y0075482D01*
X0072965Y0091568D01*
X0073965Y0092568D01*
X0073965Y0094391D01*
X0072676Y0095679D01*
X0070853Y0095679D01*
X0069565Y0094391D01*
X0069565Y0092568D01*
X0070565Y0091568D01*
X0070565Y0076476D01*
X0063268Y0069179D01*
X0062565Y0068476D01*
X0062565Y0054482D01*
X0065065Y0051982D01*
X0065065Y0050568D01*
X0066353Y0049279D01*
X0068176Y0049279D01*
X0069465Y0050568D01*
X0069465Y0052391D01*
X0068176Y0053679D01*
X0066762Y0053679D01*
X0064965Y0055476D01*
X0064965Y0067482D01*
X0064965Y0067108D02*
X0065782Y0067108D01*
X0065183Y0066509D02*
X0064965Y0066509D01*
X0064965Y0065911D02*
X0065065Y0065911D01*
X0065065Y0065312D02*
X0064965Y0065312D01*
X0064965Y0064714D02*
X0065065Y0064714D01*
X0064965Y0064115D02*
X0065518Y0064115D01*
X0064965Y0063517D02*
X0066116Y0063517D01*
X0064965Y0062918D02*
X0069592Y0062918D01*
X0069065Y0062320D02*
X0064965Y0062320D01*
X0064965Y0061721D02*
X0069065Y0061721D01*
X0069065Y0061123D02*
X0064965Y0061123D01*
X0064965Y0060524D02*
X0069109Y0060524D01*
X0069707Y0059926D02*
X0064965Y0059926D01*
X0064965Y0059327D02*
X0070306Y0059327D01*
X0070804Y0058130D02*
X0064965Y0058130D01*
X0064965Y0057532D02*
X0070205Y0057532D01*
X0069607Y0056933D02*
X0064965Y0056933D01*
X0064965Y0056335D02*
X0069565Y0056335D01*
X0069565Y0055736D02*
X0064965Y0055736D01*
X0065304Y0055137D02*
X0069565Y0055137D01*
X0070094Y0054539D02*
X0065902Y0054539D01*
X0066501Y0053940D02*
X0070692Y0053940D01*
X0069112Y0052743D02*
X0080065Y0052743D01*
X0080065Y0052145D02*
X0069465Y0052145D01*
X0069465Y0051546D02*
X0080086Y0051546D01*
X0080065Y0051568D02*
X0081353Y0050279D01*
X0082768Y0050279D01*
X0082868Y0050179D01*
X0082353Y0050179D01*
X0081353Y0049179D01*
X0065762Y0049179D01*
X0062465Y0052476D01*
X0060965Y0053976D01*
X0060965Y0079068D01*
X0061965Y0080068D01*
X0061965Y0081891D01*
X0060676Y0083179D01*
X0058853Y0083179D01*
X0057565Y0081891D01*
X0057565Y0080068D01*
X0058565Y0079068D01*
X0058565Y0052982D01*
X0060768Y0050779D01*
X0064065Y0047482D01*
X0064768Y0046779D01*
X0081353Y0046779D01*
X0082353Y0045779D01*
X0084176Y0045779D01*
X0085465Y0047068D01*
X0085465Y0048891D01*
X0084576Y0049779D01*
X0101353Y0049779D01*
X0102353Y0048779D01*
X0104176Y0048779D01*
X0105465Y0050068D01*
X0105465Y0051891D01*
X0104176Y0053179D01*
X0102353Y0053179D01*
X0101353Y0052179D01*
X0084465Y0052179D01*
X0084465Y0053391D01*
X0083176Y0054679D01*
X0081353Y0054679D01*
X0080065Y0053391D01*
X0080065Y0051568D01*
X0080685Y0050948D02*
X0069465Y0050948D01*
X0069246Y0050349D02*
X0081283Y0050349D01*
X0081925Y0049751D02*
X0068647Y0049751D01*
X0067265Y0051479D02*
X0063765Y0054979D01*
X0063765Y0067979D01*
X0071765Y0075979D01*
X0071765Y0093479D01*
X0073965Y0093442D02*
X0083065Y0093442D01*
X0083065Y0093891D02*
X0083065Y0092068D01*
X0084353Y0090779D01*
X0086176Y0090779D01*
X0087176Y0091779D01*
X0095768Y0091779D01*
X0105468Y0082079D01*
X0104765Y0082079D01*
X0104765Y0079480D01*
X0104764Y0079480D01*
X0104764Y0082079D01*
X0103688Y0082079D01*
X0102165Y0080556D01*
X0102165Y0079479D01*
X0102165Y0078402D01*
X0103688Y0076879D01*
X0104764Y0076879D01*
X0104764Y0079479D01*
X0102165Y0079479D01*
X0104764Y0079479D01*
X0104764Y0079479D01*
X0104765Y0079479D01*
X0104765Y0079479D01*
X0107365Y0079479D01*
X0107365Y0078402D01*
X0105842Y0076879D01*
X0104765Y0076879D01*
X0104765Y0079479D01*
X0107365Y0079479D01*
X0107365Y0080182D01*
X0112565Y0074982D01*
X0112565Y0073391D01*
X0111565Y0072391D01*
X0111565Y0070568D01*
X0112853Y0069279D01*
X0114676Y0069279D01*
X0115965Y0070568D01*
X0115965Y0072391D01*
X0114965Y0073391D01*
X0114965Y0075976D01*
X0114262Y0076679D01*
X0096762Y0094179D01*
X0087176Y0094179D01*
X0086176Y0095179D01*
X0084353Y0095179D01*
X0083065Y0093891D01*
X0083215Y0094041D02*
X0073965Y0094041D01*
X0073716Y0094639D02*
X0083813Y0094639D01*
X0083065Y0092844D02*
X0073965Y0092844D01*
X0073642Y0092245D02*
X0083065Y0092245D01*
X0083486Y0091647D02*
X0073043Y0091647D01*
X0072965Y0091048D02*
X0084085Y0091048D01*
X0085265Y0092979D02*
X0096265Y0092979D01*
X0113765Y0075479D01*
X0113765Y0071479D01*
X0115262Y0073093D02*
X0117954Y0073093D01*
X0117356Y0073691D02*
X0114965Y0073691D01*
X0114965Y0074290D02*
X0116757Y0074290D01*
X0116159Y0074888D02*
X0114965Y0074888D01*
X0114965Y0075487D02*
X0115560Y0075487D01*
X0114962Y0076085D02*
X0114856Y0076085D01*
X0114363Y0076684D02*
X0114257Y0076684D01*
X0113765Y0077282D02*
X0113659Y0077282D01*
X0113166Y0077881D02*
X0113060Y0077881D01*
X0112568Y0078479D02*
X0112462Y0078479D01*
X0111969Y0079078D02*
X0111863Y0079078D01*
X0111370Y0079676D02*
X0111265Y0079676D01*
X0110772Y0080275D02*
X0110666Y0080275D01*
X0110173Y0080873D02*
X0110068Y0080873D01*
X0109575Y0081472D02*
X0109469Y0081472D01*
X0108976Y0082071D02*
X0108871Y0082071D01*
X0108378Y0082669D02*
X0108272Y0082669D01*
X0107779Y0083268D02*
X0107674Y0083268D01*
X0107181Y0083866D02*
X0107075Y0083866D01*
X0106582Y0084465D02*
X0106476Y0084465D01*
X0105984Y0085063D02*
X0105878Y0085063D01*
X0105385Y0085662D02*
X0105279Y0085662D01*
X0104787Y0086260D02*
X0104681Y0086260D01*
X0104188Y0086859D02*
X0104082Y0086859D01*
X0103590Y0087457D02*
X0103484Y0087457D01*
X0102991Y0088056D02*
X0102885Y0088056D01*
X0102393Y0088654D02*
X0102287Y0088654D01*
X0101794Y0089253D02*
X0101688Y0089253D01*
X0101196Y0089851D02*
X0101090Y0089851D01*
X0100597Y0090450D02*
X0100491Y0090450D01*
X0099999Y0091048D02*
X0099893Y0091048D01*
X0099400Y0091647D02*
X0099294Y0091647D01*
X0098802Y0092245D02*
X0098696Y0092245D01*
X0098203Y0092844D02*
X0098097Y0092844D01*
X0097605Y0093442D02*
X0097499Y0093442D01*
X0097006Y0094041D02*
X0096900Y0094041D01*
X0096408Y0094639D02*
X0086716Y0094639D01*
X0087043Y0091647D02*
X0095900Y0091647D01*
X0096499Y0091048D02*
X0086445Y0091048D01*
X0094014Y0097033D02*
X0069515Y0097033D01*
X0068917Y0096435D02*
X0094612Y0096435D01*
X0095211Y0095836D02*
X0068318Y0095836D01*
X0067965Y0095238D02*
X0070412Y0095238D01*
X0069813Y0094639D02*
X0067965Y0094639D01*
X0067965Y0094041D02*
X0069565Y0094041D01*
X0069565Y0093442D02*
X0067965Y0093442D01*
X0067965Y0092844D02*
X0069565Y0092844D01*
X0069888Y0092245D02*
X0068110Y0092245D01*
X0068709Y0091647D02*
X0070486Y0091647D01*
X0070565Y0091048D02*
X0068965Y0091048D01*
X0068965Y0090450D02*
X0070565Y0090450D01*
X0070565Y0089851D02*
X0068965Y0089851D01*
X0068649Y0089253D02*
X0070565Y0089253D01*
X0072965Y0089253D02*
X0098294Y0089253D01*
X0097696Y0089851D02*
X0072965Y0089851D01*
X0072965Y0090450D02*
X0097097Y0090450D01*
X0098893Y0088654D02*
X0072965Y0088654D01*
X0072965Y0088056D02*
X0099491Y0088056D01*
X0100090Y0087457D02*
X0072965Y0087457D01*
X0072965Y0086859D02*
X0100688Y0086859D01*
X0101287Y0086260D02*
X0072965Y0086260D01*
X0072965Y0085662D02*
X0101885Y0085662D01*
X0102484Y0085063D02*
X0072965Y0085063D01*
X0072965Y0084465D02*
X0103082Y0084465D01*
X0103681Y0083866D02*
X0072965Y0083866D01*
X0072965Y0083268D02*
X0104279Y0083268D01*
X0104878Y0082669D02*
X0072965Y0082669D01*
X0072965Y0082071D02*
X0103679Y0082071D01*
X0103080Y0081472D02*
X0072965Y0081472D01*
X0072965Y0080873D02*
X0102482Y0080873D01*
X0102165Y0080275D02*
X0080080Y0080275D01*
X0077449Y0080275D02*
X0072965Y0080275D01*
X0072965Y0079676D02*
X0076850Y0079676D01*
X0076565Y0079078D02*
X0072965Y0079078D01*
X0072965Y0078479D02*
X0076565Y0078479D01*
X0076565Y0077881D02*
X0072965Y0077881D01*
X0072965Y0077282D02*
X0076850Y0077282D01*
X0077449Y0076684D02*
X0072965Y0076684D01*
X0072965Y0076085D02*
X0094254Y0076085D01*
X0093656Y0076684D02*
X0080080Y0076684D01*
X0072965Y0075487D02*
X0094853Y0075487D01*
X0095451Y0074888D02*
X0072371Y0074888D01*
X0071772Y0074290D02*
X0096050Y0074290D01*
X0096648Y0073691D02*
X0071174Y0073691D01*
X0070575Y0073093D02*
X0097247Y0073093D01*
X0097846Y0072494D02*
X0069977Y0072494D01*
X0069378Y0071896D02*
X0098444Y0071896D01*
X0099043Y0071297D02*
X0068779Y0071297D01*
X0068181Y0070699D02*
X0099641Y0070699D01*
X0100240Y0070100D02*
X0067582Y0070100D01*
X0066984Y0069502D02*
X0100838Y0069502D01*
X0101437Y0068903D02*
X0066385Y0068903D01*
X0065787Y0068305D02*
X0102035Y0068305D01*
X0104449Y0070699D02*
X0111565Y0070699D01*
X0111565Y0071297D02*
X0103851Y0071297D01*
X0103252Y0071896D02*
X0111565Y0071896D01*
X0111668Y0072494D02*
X0102654Y0072494D01*
X0102055Y0073093D02*
X0112267Y0073093D01*
X0112565Y0073691D02*
X0101457Y0073691D01*
X0100858Y0074290D02*
X0112565Y0074290D01*
X0112565Y0074888D02*
X0100260Y0074888D01*
X0099661Y0075487D02*
X0112060Y0075487D01*
X0111462Y0076085D02*
X0099063Y0076085D01*
X0098464Y0076684D02*
X0110863Y0076684D01*
X0110265Y0077282D02*
X0106244Y0077282D01*
X0106843Y0077881D02*
X0109666Y0077881D01*
X0109068Y0078479D02*
X0107365Y0078479D01*
X0107365Y0079078D02*
X0108469Y0079078D01*
X0107870Y0079676D02*
X0107365Y0079676D01*
X0104765Y0079676D02*
X0104764Y0079676D01*
X0104764Y0079078D02*
X0104765Y0079078D01*
X0104764Y0078479D02*
X0104765Y0078479D01*
X0104764Y0077881D02*
X0104765Y0077881D01*
X0104764Y0077282D02*
X0104765Y0077282D01*
X0103285Y0077282D02*
X0097866Y0077282D01*
X0097267Y0077881D02*
X0102686Y0077881D01*
X0102165Y0078479D02*
X0096669Y0078479D01*
X0096070Y0079078D02*
X0102165Y0079078D01*
X0102165Y0079676D02*
X0095472Y0079676D01*
X0104764Y0080275D02*
X0104765Y0080275D01*
X0104764Y0080873D02*
X0104765Y0080873D01*
X0104764Y0081472D02*
X0104765Y0081472D01*
X0104764Y0082071D02*
X0104765Y0082071D01*
X0115861Y0072494D02*
X0118553Y0072494D01*
X0115965Y0071896D02*
X0138904Y0071896D01*
X0138112Y0071297D02*
X0115965Y0071297D01*
X0115965Y0070699D02*
X0137513Y0070699D01*
X0137249Y0070100D02*
X0115497Y0070100D01*
X0114898Y0069502D02*
X0120090Y0069502D01*
X0119491Y0068903D02*
X0106952Y0068903D01*
X0106965Y0068305D02*
X0118893Y0068305D01*
X0118294Y0067706D02*
X0106965Y0067706D01*
X0106965Y0067108D02*
X0117696Y0067108D01*
X0120765Y0065979D02*
X0135765Y0065979D01*
X0138265Y0063479D01*
X0145765Y0063479D01*
X0146900Y0062918D02*
X0159592Y0062918D01*
X0159065Y0062320D02*
X0151602Y0062320D01*
X0152994Y0061721D02*
X0159065Y0061721D01*
X0159065Y0061123D02*
X0153592Y0061123D01*
X0154105Y0060524D02*
X0158612Y0060524D01*
X0158014Y0059926D02*
X0154353Y0059926D01*
X0154601Y0059327D02*
X0157565Y0059327D01*
X0157565Y0058729D02*
X0154633Y0058729D01*
X0154633Y0058130D02*
X0157565Y0058130D01*
X0157565Y0057532D02*
X0154559Y0057532D01*
X0154311Y0056933D02*
X0157565Y0056933D01*
X0157565Y0056335D02*
X0154063Y0056335D01*
X0153492Y0055736D02*
X0157565Y0055736D01*
X0157565Y0055137D02*
X0152805Y0055137D01*
X0154106Y0052348D02*
X0147423Y0052348D01*
X0146896Y0051821D01*
X0146896Y0045138D01*
X0147423Y0044611D01*
X0154106Y0044611D01*
X0154633Y0045138D01*
X0154633Y0051821D01*
X0154106Y0052348D01*
X0154309Y0052145D02*
X0157565Y0052145D01*
X0157565Y0052743D02*
X0146726Y0052743D01*
X0147220Y0052145D02*
X0142024Y0052145D01*
X0143168Y0051546D02*
X0146896Y0051546D01*
X0146896Y0050948D02*
X0143767Y0050948D01*
X0144177Y0050349D02*
X0146896Y0050349D01*
X0146896Y0049751D02*
X0144425Y0049751D01*
X0144633Y0049152D02*
X0146896Y0049152D01*
X0146896Y0048554D02*
X0144633Y0048554D01*
X0144633Y0047955D02*
X0146896Y0047955D01*
X0146896Y0047357D02*
X0144487Y0047357D01*
X0144239Y0046758D02*
X0146896Y0046758D01*
X0146896Y0046160D02*
X0143916Y0046160D01*
X0143317Y0045561D02*
X0146896Y0045561D01*
X0147071Y0044963D02*
X0142384Y0044963D01*
X0139146Y0044963D02*
X0125478Y0044963D01*
X0124880Y0045561D02*
X0138212Y0045561D01*
X0137613Y0046160D02*
X0124465Y0046160D01*
X0124465Y0046758D02*
X0137290Y0046758D01*
X0137042Y0047357D02*
X0124465Y0047357D01*
X0124465Y0047955D02*
X0136896Y0047955D01*
X0136896Y0048554D02*
X0124465Y0048554D01*
X0124465Y0049152D02*
X0136896Y0049152D01*
X0137104Y0049751D02*
X0124465Y0049751D01*
X0124465Y0050349D02*
X0137352Y0050349D01*
X0137762Y0050948D02*
X0124465Y0050948D01*
X0124465Y0051546D02*
X0138361Y0051546D01*
X0139505Y0052145D02*
X0124465Y0052145D01*
X0124465Y0052743D02*
X0137303Y0052743D01*
X0136705Y0053342D02*
X0124465Y0053342D01*
X0124465Y0053940D02*
X0136106Y0053940D01*
X0135508Y0054539D02*
X0124465Y0054539D01*
X0124465Y0055137D02*
X0135065Y0055137D01*
X0135065Y0055736D02*
X0124465Y0055736D01*
X0124465Y0056335D02*
X0135065Y0056335D01*
X0135065Y0056933D02*
X0124465Y0056933D01*
X0124928Y0057532D02*
X0135065Y0057532D01*
X0135065Y0058130D02*
X0125465Y0058130D01*
X0125465Y0058729D02*
X0135065Y0058729D01*
X0135065Y0059327D02*
X0133723Y0059327D01*
X0134322Y0059926D02*
X0135065Y0059926D01*
X0135065Y0060524D02*
X0134920Y0060524D01*
X0134965Y0061123D02*
X0135065Y0061123D01*
X0135065Y0061721D02*
X0134965Y0061721D01*
X0134965Y0062320D02*
X0135065Y0062320D01*
X0135765Y0063479D02*
X0135265Y0063979D01*
X0130765Y0063979D01*
X0121265Y0063979D01*
X0119015Y0061729D01*
X0077515Y0061729D01*
X0071765Y0055979D01*
X0073435Y0054539D02*
X0081213Y0054539D01*
X0080614Y0053940D02*
X0072837Y0053940D01*
X0073965Y0055137D02*
X0089065Y0055137D01*
X0089094Y0054539D02*
X0083316Y0054539D01*
X0083915Y0053940D02*
X0089692Y0053940D01*
X0090291Y0053342D02*
X0084465Y0053342D01*
X0084465Y0052743D02*
X0101917Y0052743D01*
X0103265Y0050979D02*
X0083765Y0050979D01*
X0082265Y0052479D01*
X0080065Y0053342D02*
X0068513Y0053342D01*
X0064902Y0052145D02*
X0062796Y0052145D01*
X0062198Y0052743D02*
X0064303Y0052743D01*
X0063705Y0053342D02*
X0061599Y0053342D01*
X0061001Y0053940D02*
X0063106Y0053940D01*
X0062565Y0054539D02*
X0060965Y0054539D01*
X0060965Y0055137D02*
X0062565Y0055137D01*
X0062565Y0055736D02*
X0060965Y0055736D01*
X0060965Y0056335D02*
X0062565Y0056335D01*
X0062565Y0056933D02*
X0060965Y0056933D01*
X0060965Y0057532D02*
X0062565Y0057532D01*
X0062565Y0058130D02*
X0060965Y0058130D01*
X0060965Y0058729D02*
X0062565Y0058729D01*
X0062565Y0059327D02*
X0060965Y0059327D01*
X0060965Y0059926D02*
X0062565Y0059926D01*
X0062565Y0060524D02*
X0060965Y0060524D01*
X0060965Y0061123D02*
X0062565Y0061123D01*
X0062565Y0061721D02*
X0060965Y0061721D01*
X0060965Y0062320D02*
X0062565Y0062320D01*
X0062565Y0062918D02*
X0060965Y0062918D01*
X0060965Y0063517D02*
X0062565Y0063517D01*
X0062565Y0064115D02*
X0060965Y0064115D01*
X0060965Y0064714D02*
X0062565Y0064714D01*
X0062565Y0065312D02*
X0060965Y0065312D01*
X0060965Y0065911D02*
X0062565Y0065911D01*
X0062565Y0066509D02*
X0060965Y0066509D01*
X0060965Y0067108D02*
X0062565Y0067108D01*
X0062565Y0067706D02*
X0060965Y0067706D01*
X0060965Y0068305D02*
X0062565Y0068305D01*
X0062991Y0068903D02*
X0060965Y0068903D01*
X0060965Y0069502D02*
X0063590Y0069502D01*
X0064188Y0070100D02*
X0060965Y0070100D01*
X0060965Y0070699D02*
X0064787Y0070699D01*
X0065385Y0071297D02*
X0060965Y0071297D01*
X0060965Y0071896D02*
X0065984Y0071896D01*
X0066582Y0072494D02*
X0060965Y0072494D01*
X0060965Y0073093D02*
X0067181Y0073093D01*
X0067779Y0073691D02*
X0060965Y0073691D01*
X0060965Y0074290D02*
X0068378Y0074290D01*
X0068976Y0074888D02*
X0060965Y0074888D01*
X0060965Y0075487D02*
X0069575Y0075487D01*
X0070173Y0076085D02*
X0060965Y0076085D01*
X0060965Y0076684D02*
X0070565Y0076684D01*
X0070565Y0077282D02*
X0060965Y0077282D01*
X0060965Y0077881D02*
X0070565Y0077881D01*
X0070565Y0078479D02*
X0060965Y0078479D01*
X0060974Y0079078D02*
X0070565Y0079078D01*
X0070565Y0079676D02*
X0061573Y0079676D01*
X0061965Y0080275D02*
X0070565Y0080275D01*
X0070565Y0080873D02*
X0061965Y0080873D01*
X0061965Y0081472D02*
X0070565Y0081472D01*
X0070565Y0082071D02*
X0061785Y0082071D01*
X0061186Y0082669D02*
X0070565Y0082669D01*
X0059765Y0080979D02*
X0059765Y0053479D01*
X0061265Y0051979D01*
X0065265Y0047979D01*
X0083265Y0047979D01*
X0085465Y0047955D02*
X0097564Y0047955D01*
X0097688Y0048079D02*
X0096165Y0046556D01*
X0096165Y0045479D01*
X0096165Y0044402D01*
X0097688Y0042879D01*
X0098764Y0042879D01*
X0098764Y0045479D01*
X0096165Y0045479D01*
X0098764Y0045479D01*
X0098764Y0045479D01*
X0098765Y0045479D01*
X0098765Y0045479D01*
X0101365Y0045479D01*
X0101365Y0044402D01*
X0099842Y0042879D01*
X0098765Y0042879D01*
X0098765Y0045479D01*
X0101365Y0045479D01*
X0101365Y0046556D01*
X0099842Y0048079D01*
X0098765Y0048079D01*
X0098765Y0045480D01*
X0098764Y0045480D01*
X0098764Y0048079D01*
X0097688Y0048079D01*
X0096965Y0047357D02*
X0085465Y0047357D01*
X0085155Y0046758D02*
X0096367Y0046758D01*
X0096165Y0046160D02*
X0084556Y0046160D01*
X0083392Y0044963D02*
X0096165Y0044963D01*
X0096165Y0045561D02*
X0082794Y0045561D01*
X0082676Y0045679D02*
X0080853Y0045679D01*
X0079565Y0044391D01*
X0079565Y0042568D01*
X0080853Y0041279D01*
X0082676Y0041279D01*
X0083676Y0042279D01*
X0093768Y0042279D01*
X0095065Y0040982D01*
X0098065Y0037982D01*
X0099065Y0036982D01*
X0099768Y0036279D01*
X0159762Y0036279D01*
X0167262Y0043779D01*
X0167965Y0044482D01*
X0167965Y0047976D01*
X0166965Y0048976D01*
X0166262Y0049679D01*
X0164176Y0049679D01*
X0163176Y0050679D01*
X0161353Y0050679D01*
X0160065Y0049391D01*
X0160065Y0047568D01*
X0161353Y0046279D01*
X0163176Y0046279D01*
X0164176Y0047279D01*
X0165268Y0047279D01*
X0165565Y0046982D01*
X0165565Y0045476D01*
X0162965Y0042876D01*
X0162965Y0044391D01*
X0161676Y0045679D01*
X0159853Y0045679D01*
X0158565Y0044391D01*
X0158565Y0042976D01*
X0156768Y0041179D01*
X0125262Y0041179D01*
X0121965Y0044476D01*
X0121965Y0056476D01*
X0121262Y0057179D01*
X0119762Y0058679D01*
X0098268Y0058679D01*
X0097565Y0057976D01*
X0096768Y0057179D01*
X0095353Y0057179D01*
X0094065Y0055891D01*
X0094065Y0054068D01*
X0095353Y0052779D01*
X0097176Y0052779D01*
X0098465Y0054068D01*
X0098465Y0055482D01*
X0099262Y0056279D01*
X0112388Y0056279D01*
X0111165Y0055056D01*
X0111165Y0053979D01*
X0111165Y0052902D01*
X0112688Y0051379D01*
X0113764Y0051379D01*
X0113764Y0053979D01*
X0111165Y0053979D01*
X0113764Y0053979D01*
X0113764Y0053979D01*
X0113765Y0053979D01*
X0113765Y0053979D01*
X0116365Y0053979D01*
X0116365Y0052902D01*
X0114842Y0051379D01*
X0113765Y0051379D01*
X0113765Y0053979D01*
X0116365Y0053979D01*
X0116365Y0055056D01*
X0115141Y0056279D01*
X0118768Y0056279D01*
X0119565Y0055482D01*
X0119565Y0043482D01*
X0123565Y0039482D01*
X0124268Y0038779D01*
X0157762Y0038779D01*
X0160262Y0041279D01*
X0161368Y0041279D01*
X0158768Y0038679D01*
X0100762Y0038679D01*
X0099762Y0039679D01*
X0096762Y0042679D01*
X0094762Y0044679D01*
X0083676Y0044679D01*
X0082676Y0045679D01*
X0081973Y0046160D02*
X0023570Y0046160D01*
X0023818Y0046758D02*
X0081374Y0046758D01*
X0080735Y0045561D02*
X0023322Y0045561D01*
X0023074Y0044963D02*
X0080137Y0044963D01*
X0079565Y0044364D02*
X0022827Y0044364D01*
X0022631Y0043892D02*
X0023864Y0046868D01*
X0023864Y0050090D01*
X0022631Y0053067D01*
X0020352Y0055346D01*
X0017376Y0056579D01*
X0014154Y0056579D01*
X0011177Y0055346D01*
X0008898Y0053067D01*
X0007665Y0050090D01*
X0007665Y0046868D01*
X0008898Y0043892D01*
X0011177Y0041613D01*
X0014154Y0040380D01*
X0017376Y0040380D01*
X0020352Y0041613D01*
X0022631Y0043892D01*
X0022505Y0043766D02*
X0079565Y0043766D01*
X0079565Y0043167D02*
X0021906Y0043167D01*
X0021308Y0042569D02*
X0079565Y0042569D01*
X0080162Y0041970D02*
X0020709Y0041970D01*
X0019769Y0041372D02*
X0080761Y0041372D01*
X0082768Y0041372D02*
X0094675Y0041372D01*
X0094077Y0041970D02*
X0083367Y0041970D01*
X0081765Y0043479D02*
X0094265Y0043479D01*
X0096265Y0041479D01*
X0099265Y0038479D01*
X0100265Y0037479D01*
X0146765Y0037479D01*
X0159265Y0037479D01*
X0166765Y0044979D01*
X0166765Y0047479D01*
X0165765Y0048479D01*
X0162265Y0048479D01*
X0160065Y0048554D02*
X0159965Y0048554D01*
X0159965Y0049152D02*
X0160065Y0049152D01*
X0159965Y0049751D02*
X0160425Y0049751D01*
X0159965Y0050349D02*
X0161023Y0050349D01*
X0159965Y0050948D02*
X0196965Y0050948D01*
X0196965Y0051546D02*
X0159965Y0051546D01*
X0159965Y0052145D02*
X0196965Y0052145D01*
X0196965Y0052743D02*
X0159965Y0052743D01*
X0159965Y0053342D02*
X0196965Y0053342D01*
X0196965Y0053940D02*
X0159965Y0053940D01*
X0159965Y0054539D02*
X0196965Y0054539D01*
X0196965Y0055137D02*
X0159965Y0055137D01*
X0159965Y0055736D02*
X0196965Y0055736D01*
X0196965Y0056335D02*
X0159965Y0056335D01*
X0159965Y0056933D02*
X0196965Y0056933D01*
X0196965Y0057532D02*
X0159965Y0057532D01*
X0159965Y0058130D02*
X0196965Y0058130D01*
X0196965Y0058729D02*
X0160211Y0058729D01*
X0158765Y0058979D02*
X0161265Y0061479D01*
X0162822Y0059926D02*
X0196965Y0059926D01*
X0196965Y0060524D02*
X0163420Y0060524D01*
X0163465Y0061123D02*
X0196965Y0061123D01*
X0196965Y0061721D02*
X0163465Y0061721D01*
X0163465Y0062320D02*
X0196965Y0062320D01*
X0196965Y0062918D02*
X0162937Y0062918D01*
X0162339Y0063517D02*
X0196965Y0063517D01*
X0196965Y0064115D02*
X0148097Y0064115D01*
X0147499Y0063517D02*
X0160191Y0063517D01*
X0162223Y0059327D02*
X0196965Y0059327D01*
X0196965Y0064714D02*
X0151782Y0064714D01*
X0153068Y0065312D02*
X0196965Y0065312D01*
X0196965Y0065911D02*
X0153667Y0065911D01*
X0154136Y0066509D02*
X0196965Y0066509D01*
X0196965Y0050349D02*
X0163506Y0050349D01*
X0164104Y0049751D02*
X0196965Y0049751D01*
X0196965Y0049152D02*
X0166789Y0049152D01*
X0167387Y0048554D02*
X0196965Y0048554D01*
X0196965Y0047955D02*
X0167965Y0047955D01*
X0167965Y0047357D02*
X0196965Y0047357D01*
X0196965Y0046758D02*
X0167965Y0046758D01*
X0167965Y0046160D02*
X0196965Y0046160D01*
X0196965Y0045561D02*
X0167965Y0045561D01*
X0167965Y0044963D02*
X0196965Y0044963D01*
X0196965Y0044364D02*
X0167846Y0044364D01*
X0167248Y0043766D02*
X0196965Y0043766D01*
X0196965Y0043167D02*
X0166649Y0043167D01*
X0166051Y0042569D02*
X0196965Y0042569D01*
X0196965Y0041970D02*
X0187951Y0041970D01*
X0187842Y0042079D02*
X0189365Y0040556D01*
X0189365Y0039479D01*
X0186765Y0039479D01*
X0186765Y0039479D01*
X0186765Y0036879D01*
X0187842Y0036879D01*
X0189365Y0038402D01*
X0189365Y0039479D01*
X0186765Y0039479D01*
X0186764Y0039479D01*
X0184165Y0039479D01*
X0184165Y0038402D01*
X0185688Y0036879D01*
X0186764Y0036879D01*
X0186764Y0039479D01*
X0186764Y0039479D01*
X0184165Y0039479D01*
X0184165Y0040556D01*
X0185688Y0042079D01*
X0186764Y0042079D01*
X0186764Y0039480D01*
X0186765Y0039480D01*
X0186765Y0042079D01*
X0187842Y0042079D01*
X0188549Y0041372D02*
X0196965Y0041372D01*
X0196965Y0040773D02*
X0189148Y0040773D01*
X0189365Y0040175D02*
X0196965Y0040175D01*
X0196965Y0039576D02*
X0189365Y0039576D01*
X0189365Y0038978D02*
X0196965Y0038978D01*
X0196965Y0038379D02*
X0189341Y0038379D01*
X0188743Y0037781D02*
X0196965Y0037781D01*
X0196965Y0037182D02*
X0188144Y0037182D01*
X0186765Y0037182D02*
X0186764Y0037182D01*
X0186764Y0037781D02*
X0186765Y0037781D01*
X0186764Y0038379D02*
X0186765Y0038379D01*
X0186764Y0038978D02*
X0186765Y0038978D01*
X0186764Y0039576D02*
X0186765Y0039576D01*
X0186764Y0040175D02*
X0186765Y0040175D01*
X0186764Y0040773D02*
X0186765Y0040773D01*
X0186764Y0041372D02*
X0186765Y0041372D01*
X0186764Y0041970D02*
X0186765Y0041970D01*
X0185578Y0041970D02*
X0165452Y0041970D01*
X0164854Y0041372D02*
X0184980Y0041372D01*
X0184381Y0040773D02*
X0164255Y0040773D01*
X0163657Y0040175D02*
X0184165Y0040175D01*
X0184165Y0039576D02*
X0163058Y0039576D01*
X0162460Y0038978D02*
X0184165Y0038978D01*
X0184188Y0038379D02*
X0161861Y0038379D01*
X0161263Y0037781D02*
X0184786Y0037781D01*
X0185385Y0037182D02*
X0160664Y0037182D01*
X0160066Y0036584D02*
X0196965Y0036584D01*
X0196965Y0035985D02*
X0048230Y0035985D01*
X0048828Y0035387D02*
X0196965Y0035387D01*
X0196965Y0034788D02*
X0049427Y0034788D01*
X0049633Y0034190D02*
X0196965Y0034190D01*
X0196965Y0033591D02*
X0049633Y0033591D01*
X0049633Y0032993D02*
X0196965Y0032993D01*
X0196965Y0032394D02*
X0049633Y0032394D01*
X0049633Y0031796D02*
X0196965Y0031796D01*
X0196965Y0031197D02*
X0049453Y0031197D01*
X0048855Y0030599D02*
X0196965Y0030599D01*
X0196965Y0030000D02*
X0048256Y0030000D01*
X0047658Y0029402D02*
X0196965Y0029402D01*
X0165565Y0045561D02*
X0161794Y0045561D01*
X0162392Y0044963D02*
X0165051Y0044963D01*
X0164452Y0044364D02*
X0162965Y0044364D01*
X0162965Y0043766D02*
X0163854Y0043766D01*
X0163255Y0043167D02*
X0162965Y0043167D01*
X0160765Y0043479D02*
X0157265Y0039979D01*
X0148765Y0039979D01*
X0124765Y0039979D01*
X0120765Y0043979D01*
X0120765Y0055979D01*
X0119265Y0057479D01*
X0098765Y0057479D01*
X0096265Y0054979D01*
X0098465Y0055137D02*
X0111246Y0055137D01*
X0111165Y0054539D02*
X0098465Y0054539D01*
X0098337Y0053940D02*
X0111165Y0053940D01*
X0111165Y0053342D02*
X0097738Y0053342D01*
X0094791Y0053342D02*
X0092238Y0053342D01*
X0092837Y0053940D02*
X0094192Y0053940D01*
X0094065Y0054539D02*
X0093435Y0054539D01*
X0093465Y0055137D02*
X0094065Y0055137D01*
X0094065Y0055736D02*
X0093465Y0055736D01*
X0093817Y0056335D02*
X0094508Y0056335D01*
X0094415Y0056933D02*
X0095107Y0056933D01*
X0095014Y0057532D02*
X0097120Y0057532D01*
X0097718Y0058130D02*
X0095612Y0058130D01*
X0096211Y0058729D02*
X0121065Y0058729D01*
X0121065Y0059327D02*
X0120809Y0059327D01*
X0121065Y0058130D02*
X0120311Y0058130D01*
X0120909Y0057532D02*
X0121601Y0057532D01*
X0121508Y0056933D02*
X0122065Y0056933D01*
X0122065Y0056335D02*
X0121965Y0056335D01*
X0121965Y0055736D02*
X0122065Y0055736D01*
X0122065Y0055137D02*
X0121965Y0055137D01*
X0121965Y0054539D02*
X0122065Y0054539D01*
X0122065Y0053940D02*
X0121965Y0053940D01*
X0121965Y0053342D02*
X0122065Y0053342D01*
X0122065Y0052743D02*
X0121965Y0052743D01*
X0121965Y0052145D02*
X0122065Y0052145D01*
X0122065Y0051546D02*
X0121965Y0051546D01*
X0121965Y0050948D02*
X0122065Y0050948D01*
X0122065Y0050349D02*
X0121965Y0050349D01*
X0121965Y0049751D02*
X0122065Y0049751D01*
X0122065Y0049152D02*
X0121965Y0049152D01*
X0121965Y0048554D02*
X0122065Y0048554D01*
X0122065Y0047955D02*
X0121965Y0047955D01*
X0121965Y0047357D02*
X0122065Y0047357D01*
X0122065Y0046758D02*
X0121965Y0046758D01*
X0121965Y0046160D02*
X0122065Y0046160D01*
X0122065Y0045561D02*
X0121965Y0045561D01*
X0121965Y0044963D02*
X0122084Y0044963D01*
X0122077Y0044364D02*
X0122683Y0044364D01*
X0122675Y0043766D02*
X0123281Y0043766D01*
X0123274Y0043167D02*
X0123880Y0043167D01*
X0123872Y0042569D02*
X0124478Y0042569D01*
X0124471Y0041970D02*
X0125077Y0041970D01*
X0125069Y0041372D02*
X0125675Y0041372D01*
X0126265Y0042479D02*
X0147765Y0042479D01*
X0154765Y0042479D01*
X0158765Y0046479D01*
X0158765Y0058979D01*
X0157565Y0054539D02*
X0148521Y0054539D01*
X0147923Y0053940D02*
X0157565Y0053940D01*
X0157565Y0053342D02*
X0147324Y0053342D01*
X0145765Y0053479D02*
X0150765Y0058479D01*
X0147176Y0059926D02*
X0144353Y0059926D01*
X0144105Y0060524D02*
X0147424Y0060524D01*
X0147937Y0061123D02*
X0143592Y0061123D01*
X0142994Y0061721D02*
X0148535Y0061721D01*
X0149927Y0062320D02*
X0146302Y0062320D01*
X0146928Y0059327D02*
X0144601Y0059327D01*
X0144633Y0058729D02*
X0146896Y0058729D01*
X0146896Y0058130D02*
X0144633Y0058130D01*
X0144559Y0057532D02*
X0146970Y0057532D01*
X0147218Y0056933D02*
X0144311Y0056933D01*
X0144063Y0056335D02*
X0146923Y0056335D01*
X0146324Y0055736D02*
X0143492Y0055736D01*
X0142805Y0055137D02*
X0145726Y0055137D01*
X0145765Y0053479D02*
X0138265Y0053479D01*
X0136265Y0055479D01*
X0136265Y0062979D01*
X0135765Y0063479D01*
X0132765Y0061479D02*
X0124765Y0061479D01*
X0121265Y0061479D01*
X0119765Y0059979D01*
X0095765Y0059979D01*
X0091265Y0055479D01*
X0089607Y0056933D02*
X0074415Y0056933D01*
X0073965Y0056335D02*
X0089065Y0056335D01*
X0089065Y0055736D02*
X0073965Y0055736D01*
X0075014Y0057532D02*
X0090205Y0057532D01*
X0092218Y0058130D02*
X0075612Y0058130D01*
X0076211Y0058729D02*
X0092817Y0058729D01*
X0093415Y0059327D02*
X0076809Y0059327D01*
X0077408Y0059926D02*
X0094014Y0059926D01*
X0094612Y0060524D02*
X0078006Y0060524D01*
X0075809Y0061721D02*
X0073465Y0061721D01*
X0073465Y0061123D02*
X0075211Y0061123D01*
X0074612Y0060524D02*
X0073420Y0060524D01*
X0074014Y0059926D02*
X0072822Y0059926D01*
X0073415Y0059327D02*
X0072223Y0059327D01*
X0072817Y0058729D02*
X0064965Y0058729D01*
X0068413Y0063517D02*
X0070191Y0063517D01*
X0069012Y0064115D02*
X0072203Y0064115D01*
X0073265Y0063479D02*
X0071265Y0061479D01*
X0073265Y0063479D02*
X0118265Y0063479D01*
X0120765Y0065979D01*
X0125430Y0059926D02*
X0131207Y0059926D01*
X0131806Y0059327D02*
X0125465Y0059327D01*
X0123265Y0058979D02*
X0123265Y0047479D01*
X0123265Y0045479D01*
X0126265Y0042479D01*
X0126675Y0043766D02*
X0154354Y0043766D01*
X0154952Y0044364D02*
X0126077Y0044364D01*
X0121675Y0041372D02*
X0098069Y0041372D01*
X0097471Y0041970D02*
X0121077Y0041970D01*
X0120478Y0042569D02*
X0096872Y0042569D01*
X0097400Y0043167D02*
X0096274Y0043167D01*
X0096801Y0043766D02*
X0095675Y0043766D01*
X0096203Y0044364D02*
X0095077Y0044364D01*
X0098764Y0044364D02*
X0098765Y0044364D01*
X0098764Y0043766D02*
X0098765Y0043766D01*
X0098764Y0043167D02*
X0098765Y0043167D01*
X0100129Y0043167D02*
X0119880Y0043167D01*
X0119565Y0043766D02*
X0100728Y0043766D01*
X0101326Y0044364D02*
X0119565Y0044364D01*
X0119565Y0044963D02*
X0101365Y0044963D01*
X0101365Y0045561D02*
X0119565Y0045561D01*
X0119565Y0046160D02*
X0101365Y0046160D01*
X0101163Y0046758D02*
X0119565Y0046758D01*
X0119565Y0047357D02*
X0100564Y0047357D01*
X0099966Y0047955D02*
X0119565Y0047955D01*
X0119565Y0048554D02*
X0085465Y0048554D01*
X0085203Y0049152D02*
X0101980Y0049152D01*
X0101382Y0049751D02*
X0084604Y0049751D01*
X0095274Y0040773D02*
X0018324Y0040773D01*
X0013205Y0040773D02*
X0006565Y0040773D01*
X0006565Y0040175D02*
X0095872Y0040175D01*
X0096471Y0039576D02*
X0006565Y0039576D01*
X0006565Y0038978D02*
X0097069Y0038978D01*
X0097668Y0038379D02*
X0006565Y0038379D01*
X0006565Y0037781D02*
X0098266Y0037781D01*
X0098865Y0037182D02*
X0027598Y0037182D01*
X0028197Y0036584D02*
X0043898Y0036584D01*
X0043299Y0035985D02*
X0028795Y0035985D01*
X0029394Y0035387D02*
X0042701Y0035387D01*
X0042102Y0034788D02*
X0029992Y0034788D01*
X0030033Y0034190D02*
X0041896Y0034190D01*
X0041896Y0033591D02*
X0030033Y0033591D01*
X0030033Y0032394D02*
X0041896Y0032394D01*
X0041896Y0031796D02*
X0030033Y0031796D01*
X0030019Y0031197D02*
X0042076Y0031197D01*
X0042675Y0030599D02*
X0029420Y0030599D01*
X0028822Y0030000D02*
X0043273Y0030000D01*
X0043872Y0029402D02*
X0028223Y0029402D01*
X0023306Y0029402D02*
X0006565Y0029402D01*
X0006565Y0030000D02*
X0022707Y0030000D01*
X0022109Y0030599D02*
X0006565Y0030599D01*
X0006565Y0031197D02*
X0021510Y0031197D01*
X0021496Y0031796D02*
X0006565Y0031796D01*
X0006565Y0032394D02*
X0021496Y0032394D01*
X0021496Y0033591D02*
X0006565Y0033591D01*
X0006565Y0032993D02*
X0025465Y0032993D01*
X0025465Y0033591D02*
X0026065Y0033591D01*
X0026065Y0032993D02*
X0041896Y0032993D01*
X0047631Y0036584D02*
X0099463Y0036584D01*
X0100463Y0038978D02*
X0124069Y0038978D01*
X0123471Y0039576D02*
X0099865Y0039576D01*
X0099266Y0040175D02*
X0122872Y0040175D01*
X0122274Y0040773D02*
X0098668Y0040773D01*
X0098764Y0044963D02*
X0098765Y0044963D01*
X0098764Y0045561D02*
X0098765Y0045561D01*
X0098764Y0046160D02*
X0098765Y0046160D01*
X0098764Y0046758D02*
X0098765Y0046758D01*
X0098764Y0047357D02*
X0098765Y0047357D01*
X0098764Y0047955D02*
X0098765Y0047955D01*
X0104549Y0049152D02*
X0119565Y0049152D01*
X0119565Y0049751D02*
X0105147Y0049751D01*
X0105465Y0050349D02*
X0119565Y0050349D01*
X0119565Y0050948D02*
X0105465Y0050948D01*
X0105465Y0051546D02*
X0112521Y0051546D01*
X0111922Y0052145D02*
X0105210Y0052145D01*
X0104612Y0052743D02*
X0111324Y0052743D01*
X0113764Y0052743D02*
X0113765Y0052743D01*
X0113764Y0052145D02*
X0113765Y0052145D01*
X0113764Y0051546D02*
X0113765Y0051546D01*
X0115009Y0051546D02*
X0119565Y0051546D01*
X0119565Y0052145D02*
X0115607Y0052145D01*
X0116206Y0052743D02*
X0119565Y0052743D01*
X0119565Y0053342D02*
X0116365Y0053342D01*
X0116365Y0053940D02*
X0119565Y0053940D01*
X0119565Y0054539D02*
X0116365Y0054539D01*
X0116283Y0055137D02*
X0119565Y0055137D01*
X0119311Y0055736D02*
X0115685Y0055736D01*
X0113764Y0053940D02*
X0113765Y0053940D01*
X0113764Y0053342D02*
X0113765Y0053342D01*
X0111844Y0055736D02*
X0098718Y0055736D01*
X0106353Y0069502D02*
X0112631Y0069502D01*
X0112032Y0070100D02*
X0105755Y0070100D01*
X0095809Y0095238D02*
X0073117Y0095238D01*
X0068515Y0099427D02*
X0059965Y0099427D01*
X0059965Y0098829D02*
X0067917Y0098829D01*
X0067318Y0098230D02*
X0059965Y0098230D01*
X0059965Y0097632D02*
X0060740Y0097632D01*
X0060141Y0097033D02*
X0059965Y0097033D01*
X0062264Y0097033D02*
X0062265Y0097033D01*
X0062264Y0096435D02*
X0062265Y0096435D01*
X0062264Y0095836D02*
X0062265Y0095836D01*
X0062264Y0095238D02*
X0062265Y0095238D01*
X0062264Y0094639D02*
X0062265Y0094639D01*
X0062264Y0094041D02*
X0062265Y0094041D01*
X0062264Y0093442D02*
X0062265Y0093442D01*
X0063904Y0093442D02*
X0065565Y0093442D01*
X0065565Y0092844D02*
X0059965Y0092844D01*
X0059965Y0093442D02*
X0060625Y0093442D01*
X0060026Y0094041D02*
X0059965Y0094041D01*
X0059965Y0092245D02*
X0065419Y0092245D01*
X0064821Y0091647D02*
X0059965Y0091647D01*
X0060307Y0091048D02*
X0064565Y0091048D01*
X0064503Y0094041D02*
X0065565Y0094041D01*
X0065565Y0094639D02*
X0064865Y0094639D01*
X0064865Y0095238D02*
X0065565Y0095238D01*
X0065565Y0095836D02*
X0064865Y0095836D01*
X0064865Y0096435D02*
X0065565Y0096435D01*
X0066121Y0097033D02*
X0064388Y0097033D01*
X0063789Y0097632D02*
X0066720Y0097632D01*
X0062265Y0097632D02*
X0062264Y0097632D01*
X0058765Y0101979D02*
X0061265Y0104479D01*
X0058765Y0101979D02*
X0058765Y0089479D01*
X0058343Y0082669D02*
X0006565Y0082669D01*
X0006565Y0082071D02*
X0057744Y0082071D01*
X0057565Y0081472D02*
X0006565Y0081472D01*
X0006565Y0080873D02*
X0057565Y0080873D01*
X0057565Y0080275D02*
X0006565Y0080275D01*
X0006565Y0079676D02*
X0057956Y0079676D01*
X0058555Y0079078D02*
X0006565Y0079078D01*
X0006565Y0078479D02*
X0058565Y0078479D01*
X0058565Y0077881D02*
X0006565Y0077881D01*
X0006565Y0077282D02*
X0058565Y0077282D01*
X0058565Y0076684D02*
X0006565Y0076684D01*
X0006565Y0076085D02*
X0058565Y0076085D01*
X0058565Y0075487D02*
X0006565Y0075487D01*
X0006565Y0074888D02*
X0058565Y0074888D01*
X0058565Y0074290D02*
X0006565Y0074290D01*
X0006565Y0073691D02*
X0058565Y0073691D01*
X0058565Y0073093D02*
X0006565Y0073093D01*
X0006565Y0072494D02*
X0058565Y0072494D01*
X0058565Y0071896D02*
X0006565Y0071896D01*
X0006565Y0071297D02*
X0058565Y0071297D01*
X0058565Y0070699D02*
X0006565Y0070699D01*
X0006565Y0070100D02*
X0058565Y0070100D01*
X0058565Y0069502D02*
X0006565Y0069502D01*
X0006565Y0068903D02*
X0058565Y0068903D01*
X0058565Y0068305D02*
X0006565Y0068305D01*
X0006565Y0067706D02*
X0058565Y0067706D01*
X0058565Y0067108D02*
X0006565Y0067108D01*
X0006565Y0066509D02*
X0058565Y0066509D01*
X0058565Y0065911D02*
X0006565Y0065911D01*
X0006565Y0065312D02*
X0058565Y0065312D01*
X0058565Y0064714D02*
X0006565Y0064714D01*
X0006565Y0064115D02*
X0058565Y0064115D01*
X0058565Y0063517D02*
X0006565Y0063517D01*
X0006565Y0062918D02*
X0058565Y0062918D01*
X0058565Y0062320D02*
X0006565Y0062320D01*
X0006565Y0061721D02*
X0058565Y0061721D01*
X0058565Y0061123D02*
X0006565Y0061123D01*
X0006565Y0060524D02*
X0058565Y0060524D01*
X0058565Y0059926D02*
X0006565Y0059926D01*
X0006565Y0059327D02*
X0058565Y0059327D01*
X0058565Y0058729D02*
X0006565Y0058729D01*
X0006565Y0058130D02*
X0058565Y0058130D01*
X0058565Y0057532D02*
X0006565Y0057532D01*
X0006565Y0056933D02*
X0058565Y0056933D01*
X0058565Y0056335D02*
X0017965Y0056335D01*
X0019410Y0055736D02*
X0058565Y0055736D01*
X0058565Y0055137D02*
X0020561Y0055137D01*
X0021159Y0054539D02*
X0058565Y0054539D01*
X0058565Y0053940D02*
X0021758Y0053940D01*
X0022356Y0053342D02*
X0058565Y0053342D01*
X0058803Y0052743D02*
X0022765Y0052743D01*
X0023013Y0052145D02*
X0039753Y0052145D01*
X0040188Y0052579D02*
X0038665Y0051056D01*
X0038665Y0049979D01*
X0038665Y0048902D01*
X0040188Y0047379D01*
X0041264Y0047379D01*
X0041264Y0049979D01*
X0038665Y0049979D01*
X0041264Y0049979D01*
X0041264Y0049979D01*
X0041265Y0049979D01*
X0041265Y0049979D01*
X0043865Y0049979D01*
X0043865Y0048902D01*
X0042342Y0047379D01*
X0041265Y0047379D01*
X0041265Y0049979D01*
X0043865Y0049979D01*
X0043865Y0051056D01*
X0042342Y0052579D01*
X0041265Y0052579D01*
X0041265Y0049980D01*
X0041264Y0049980D01*
X0041264Y0052579D01*
X0040188Y0052579D01*
X0041264Y0052145D02*
X0041265Y0052145D01*
X0041264Y0051546D02*
X0041265Y0051546D01*
X0041264Y0050948D02*
X0041265Y0050948D01*
X0041264Y0050349D02*
X0041265Y0050349D01*
X0041264Y0049751D02*
X0041265Y0049751D01*
X0041264Y0049152D02*
X0041265Y0049152D01*
X0041264Y0048554D02*
X0041265Y0048554D01*
X0041264Y0047955D02*
X0041265Y0047955D01*
X0042917Y0047955D02*
X0063592Y0047955D01*
X0064190Y0047357D02*
X0023864Y0047357D01*
X0023864Y0047955D02*
X0039612Y0047955D01*
X0039013Y0048554D02*
X0023864Y0048554D01*
X0023864Y0049152D02*
X0038665Y0049152D01*
X0038665Y0049751D02*
X0023864Y0049751D01*
X0023757Y0050349D02*
X0038665Y0050349D01*
X0038665Y0050948D02*
X0023509Y0050948D01*
X0023261Y0051546D02*
X0039155Y0051546D01*
X0042776Y0052145D02*
X0059402Y0052145D01*
X0060001Y0051546D02*
X0043375Y0051546D01*
X0043865Y0050948D02*
X0060599Y0050948D01*
X0061198Y0050349D02*
X0043865Y0050349D01*
X0043865Y0049751D02*
X0061796Y0049751D01*
X0062395Y0049152D02*
X0043865Y0049152D01*
X0043516Y0048554D02*
X0062993Y0048554D01*
X0065190Y0049751D02*
X0065882Y0049751D01*
X0065283Y0050349D02*
X0064592Y0050349D01*
X0065065Y0050948D02*
X0063993Y0050948D01*
X0063395Y0051546D02*
X0065065Y0051546D01*
X0026065Y0037182D02*
X0025465Y0037182D01*
X0025465Y0036584D02*
X0026065Y0036584D01*
X0026065Y0035985D02*
X0025465Y0035985D01*
X0025465Y0035387D02*
X0026065Y0035387D01*
X0026065Y0034788D02*
X0025465Y0034788D01*
X0025465Y0034190D02*
X0026065Y0034190D01*
X0023332Y0036584D02*
X0006565Y0036584D01*
X0006565Y0037182D02*
X0023931Y0037182D01*
X0022734Y0035985D02*
X0006565Y0035985D01*
X0006565Y0035387D02*
X0022135Y0035387D01*
X0021537Y0034788D02*
X0006565Y0034788D01*
X0006565Y0034190D02*
X0021496Y0034190D01*
X0011760Y0041372D02*
X0006565Y0041372D01*
X0006565Y0041970D02*
X0010820Y0041970D01*
X0010221Y0042569D02*
X0006565Y0042569D01*
X0006565Y0043167D02*
X0009623Y0043167D01*
X0009024Y0043766D02*
X0006565Y0043766D01*
X0006565Y0044364D02*
X0008703Y0044364D01*
X0008455Y0044963D02*
X0006565Y0044963D01*
X0006565Y0045561D02*
X0008207Y0045561D01*
X0007959Y0046160D02*
X0006565Y0046160D01*
X0006565Y0046758D02*
X0007711Y0046758D01*
X0007665Y0047357D02*
X0006565Y0047357D01*
X0006565Y0047955D02*
X0007665Y0047955D01*
X0007665Y0048554D02*
X0006565Y0048554D01*
X0006565Y0049152D02*
X0007665Y0049152D01*
X0007665Y0049751D02*
X0006565Y0049751D01*
X0006565Y0050349D02*
X0007773Y0050349D01*
X0008021Y0050948D02*
X0006565Y0050948D01*
X0006565Y0051546D02*
X0008268Y0051546D01*
X0008516Y0052145D02*
X0006565Y0052145D01*
X0006565Y0052743D02*
X0008764Y0052743D01*
X0009173Y0053342D02*
X0006565Y0053342D01*
X0006565Y0053940D02*
X0009772Y0053940D01*
X0010370Y0054539D02*
X0006565Y0054539D01*
X0006565Y0055137D02*
X0010969Y0055137D01*
X0012119Y0055736D02*
X0006565Y0055736D01*
X0006565Y0056335D02*
X0013564Y0056335D01*
X0050352Y0109004D02*
X0136526Y0109004D01*
X0148696Y0064714D02*
X0149747Y0064714D01*
X0154633Y0051546D02*
X0157565Y0051546D01*
X0157565Y0050948D02*
X0154633Y0050948D01*
X0154633Y0050349D02*
X0157565Y0050349D01*
X0157565Y0049751D02*
X0154633Y0049751D01*
X0154633Y0049152D02*
X0157565Y0049152D01*
X0157565Y0048554D02*
X0154633Y0048554D01*
X0154633Y0047955D02*
X0157565Y0047955D01*
X0157565Y0047357D02*
X0154633Y0047357D01*
X0154633Y0046758D02*
X0157346Y0046758D01*
X0156748Y0046160D02*
X0154633Y0046160D01*
X0154633Y0045561D02*
X0156149Y0045561D01*
X0155551Y0044963D02*
X0154458Y0044963D01*
X0156551Y0042569D02*
X0158157Y0042569D01*
X0158565Y0043167D02*
X0157149Y0043167D01*
X0157748Y0043766D02*
X0158565Y0043766D01*
X0158565Y0044364D02*
X0158346Y0044364D01*
X0158945Y0044963D02*
X0159137Y0044963D01*
X0159543Y0045561D02*
X0159735Y0045561D01*
X0159965Y0046160D02*
X0165565Y0046160D01*
X0165565Y0046758D02*
X0163655Y0046758D01*
X0160874Y0046758D02*
X0159965Y0046758D01*
X0159965Y0047357D02*
X0160276Y0047357D01*
X0160065Y0047955D02*
X0159965Y0047955D01*
X0157558Y0041970D02*
X0155952Y0041970D01*
X0155354Y0041372D02*
X0156960Y0041372D01*
X0158558Y0039576D02*
X0159664Y0039576D01*
X0159157Y0040175D02*
X0160263Y0040175D01*
X0159755Y0040773D02*
X0160861Y0040773D01*
X0159066Y0038978D02*
X0157960Y0038978D01*
X0196965Y0120974D02*
X0054936Y0120974D01*
X0055365Y0121572D02*
X0196965Y0121572D01*
X0196965Y0122171D02*
X0055365Y0122171D01*
X0055365Y0122769D02*
X0196965Y0122769D01*
X0196965Y0123368D02*
X0055365Y0123368D01*
X0054955Y0123966D02*
X0196965Y0123966D01*
M02*
